<?xml version="1.0" standalone="no"?>
<!DOCTYPE svg PUBLIC "-//W3C//DTD SVG 1.1//EN" "http://www.w3.org/Graphics/SVG/1.1/DTD/svg11.dtd" >
<!--
2013-9-30: Created.
-->
<svg>
<metadata>
Created by iconfont
</metadata>
<defs>

<font id="iconfont" horiz-adv-x="1024" >
  <font-face
    font-family="iconfont"
    font-weight="500"
    font-stretch="normal"
    units-per-em="1024"
    ascent="896"
    descent="-128"
  />
    <missing-glyph />
    
    <glyph glyph-name="x" unicode="x" horiz-adv-x="1001"
d="M281 543q-27 -1 -53 -1h-83q-18 0 -36.5 -6t-32.5 -18.5t-23 -32t-9 -45.5v-76h912v41q0 16 -0.5 30t-0.5 18q0 13 -5 29t-17 29.5t-31.5 22.5t-49.5 9h-133v-97h-438v97zM955 310v-52q0 -23 0.5 -52t0.5 -58t-10.5 -47.5t-26 -30t-33 -16t-31.5 -4.5q-14 -1 -29.5 -0.5
t-29.5 0.5h-32l-45 128h-439l-44 -128h-29h-34q-20 0 -45 1q-25 0 -41 9.5t-25.5 23t-13.5 29.5t-4 30v167h911zM163 247q-12 0 -21 -8.5t-9 -21.5t9 -21.5t21 -8.5q13 0 22 8.5t9 21.5t-9 21.5t-22 8.5zM316 123q-8 -26 -14 -48q-5 -19 -10.5 -37t-7.5 -25t-3 -15t1 -14.5
t9.5 -10.5t21.5 -4h37h67h81h80h64h36q23 0 34 12t2 38q-5 13 -9.5 30.5t-9.5 34.5q-5 19 -11 39h-368zM336 498v228q0 11 2.5 23t10 21.5t20.5 15.5t34 6h188q31 0 51.5 -14.5t20.5 -52.5v-227h-327z" />
    

    
    <glyph glyph-name="zhuye" unicode="&#58924;" d="M826.7152 403.1331 826.7152 644.3355 701.6647 644.3355 701.6647 532.9091 514.8546 726.7766 76.4124 273.3571 201.4639 273.3571 201.4639-56.4024 368.1958-56.4024 368.1958 108.4749 659.9833 108.4749 659.9833-56.4024 826.7152-56.4024 826.7152 273.3571 951.7667 273.3571Z"  horiz-adv-x="1000" />

    
    <glyph glyph-name="cut" unicode="&#58911;" d="M961.396678 111.19782399999997c-34.516509 34.472116-78.493871 52.250014-119.540365 52.250014l-22.034732 0-48.328639 48.418756L964.897552 405.591761c48.327615 48.419779 48.327615 145.259338 0 193.72926l-290.058817-290.567795-290.149895 290.567795c-48.327615-48.419779-48.327615-145.259338 0-193.72926L578.092427 211.86659399999996l-48.327615-48.418756-22.034732 0c-41.047517 0-85.023856-17.777899-119.541388-52.250014-61.758036-61.61122-70.079903-153.201218-18.632099-204.50672 22.697861-22.602787 53.24378-33.667797 85.494596-33.667797 41.044447 0 85.020786 17.780969 119.541388 52.253084 40.476488 40.427758 58.068866 93.813642 50.691549 140.199089l49.55461 49.552579 49.463532-49.552579c-7.282145-46.435589 10.211991-99.771331 50.785698-140.199089 34.520602-34.472116 78.496941-52.253084 119.44724-52.253084 32.344964 0 62.796734 11.06501 85.494596 33.667797C1031.477605-41.956322 1023.154714 49.586603999999966 961.396678 111.19782399999997zM554.541093 8.024000000000001c-5.76759-13.525038-14.374971-26.006304-25.438388-36.978193-11.065463-11.06501-23.548264-19.62292-37.166981-25.439392-12.199333-5.249561-24.966624-7.989975-36.789365-7.989975-11.537227 0-27.711244 2.552126-40.005748 14.798031-12.199333 12.249999-14.751563 28.231995-14.751563 39.58046 0 11.772115 2.740526 24.350594 7.942205 36.455283 5.77066 13.524015 14.374971 26.006304 25.441458 36.978193 11.063417 11.062963 23.548264 19.623943 37.166981 25.436322 12.199333 5.249561 24.8735 7.993045 36.790389 7.993045 11.443079 0 27.707151-2.552126 40.001655-14.801101 12.202403-12.199856 14.754633-28.228925 14.754633-39.577391C562.486368 32.75424099999998 559.742772 20.12868900000001 554.541093 8.024000000000001zM674.838736 143.40024700000004c-37.83011 0-68.375005 30.638811-68.375005 68.466348s30.545918 68.470441 68.375005 68.470441c37.734939 0 68.378075-30.642904 68.378075-68.470441C743.216811 174.08613000000003 712.573675 143.40024700000004 674.838736 143.40024700000004zM934.538907-47.58552899999995c-12.293481-12.245905-28.466475-14.798031-40.004725-14.798031-11.822741 0-24.590032 2.740414-36.790389 7.989975-13.618717 5.817496-26.100494 14.374382-37.165957 25.439392-11.066487 11.019984-19.577673 23.453155-25.441458 36.978193-5.198608 12.104689-7.943228 24.683169-7.943228 36.455283 0 11.348466 2.55223 27.330462 14.752587 39.577391 12.296551 12.248975 28.561646 14.801101 40.004725 14.801101 11.917912 0 24.590032-2.743484 36.790389-7.993045 13.618717-5.813403 26.103564-14.374382 37.261129-25.436322 10.972339-11.019984 19.57665-23.454178 25.34731-36.978193 5.29685-12.104689 7.943228-24.683169 7.943228-36.455283C949.291493-19.353533999999968 946.739263-35.38260300000002 934.538907-47.58552899999995zM285.977704-64.75660700000003L144.214311-64.75660700000003c-8.636035 0-16.016422 7.380084-16.016422 16.010649L128.19789 815.9355c0 8.630564 7.258608 16.020882 16.016422 16.020882l736.614169 0c8.635011 0 16.015398-7.259334 16.015398-16.020882l0-160.372547 64.051359 0L960.895238 815.9355c0 44.039006-36.027994 80.0645-80.066757 80.0645L144.214311 896c-44.04081 0-80.062664-35.966143-80.062664-80.0645l0-864.682481c0-43.969421 36.022877-80.063477 80.062664-80.063477L285.977704-128.81045900000004 285.977704-64.75660700000003z"  horiz-adv-x="1024" />

    
    <glyph glyph-name="sanjiaoxingup" unicode="&#58997;" d="M1020.303667-56.185393999999974L3.69531-56.185393999999974l508.304178 880.370789L1020.303667-56.185393999999974zM115.03968 8.095631000000026l793.918594 0L511.999488 695.620273 115.03968 8.095631000000026z"  horiz-adv-x="1024" />

    
    <glyph glyph-name="jianqie" unicode="&#59025;" d="M897.305408-58.689289c-5.077853 8.05342-11.053183 14.334473-17.903475 18.799158-6.871783 4.487198-13.876601 7.900947-21.032874 10.286274s-12.541131 4.487198-16.108523 6.259564c-7.178787 3.588735-14.488563 8.360412-21.93035 14.335497-7.463278 5.974062-13.000615 12.233626-16.566983 18.799158-1.204481 1.794879-2.824441 4.332678-4.925375 7.615445-2.07842 3.282766-4.332856 6.697539-6.71828 10.286274-2.386448 3.567245-5.077853 7.747451-8.054773 12.518105 4.771872 5.975085 9.258231 11.95017 13.438608 17.902742 3.567392 4.770653 7.310799 9.56382 11.184172 14.335497 3.874396 4.770653 6.719304 8.643867 8.491743 11.620665 1.794953 2.407839 4.1814 6.281053 7.17981 11.643178 2.975896 5.383614 5.952816 11.030218 8.951226 17.004279 2.97692 5.975085 5.800337 11.927657 8.491743 17.902742 2.692429 5.975085 4.61837 11.336186 5.821827 16.107863 1.181967 10.131755 1.947431 17.749246 2.232946 22.826891 0.305981 5.077645-0.153502 9.103332-1.335469 12.081153-1.794953 2.975774-4.027898 4.924149-6.719304 5.820566-2.691406 0.89744-4.61837 0.744967-5.820804-0.459464-1.181967-1.180895-3.130422-3.720741-5.800337-7.593955-2.691406-3.895727-6.127809-9.410324-10.308186-16.567327-2.385424-3.567245-6.565802-10.438747-12.541131-20.594037-5.952816-10.132778-12.212637-20.572548-18.778438-31.317263-7.157297-12.518105-15.23356-25.956162-24.162273-40.270169-10.746179 17.311271-20.901885 33.419134-30.444607 48.323589-8.359731 11.927657-16.1075 23.438828-23.264796 34.470069-7.156273 11.030218-11.336651 17.749246-12.541131 20.134573-3.566368 4.771677-6.258797 8.492418-8.05375 11.183713-1.794953 2.692319-5.077853 2.538823-9.848702-0.437975-4.770849-2.998287-6.565802-9.256828-5.362344-18.799158 1.181967-9.54233 2.97692-17.311271 5.362344-23.286356 0.590472-2.975774 2.232946-7.287987 4.925375-12.95608 2.691406-5.668093 5.820804-11.95017 9.410709-18.799158 3.566368-6.872524 7.440764-13.722536 11.621141-20.595061 4.180377-6.871501 8.360754-12.671601 12.541131-17.463744 3.566368-5.362124 7.003795-10.132778 10.286695-14.312984s6.106318-7.747451 8.491743-10.723226c2.407938-3.589758 4.793363-6.565533 7.178787-8.973372-2.99841-4.771677-5.974306-9.235338-8.951226-13.415544-2.99841-3.589758-5.820804-7.310499-8.513233-11.183713-2.692429-3.89675-4.925375-7.024997-6.71828-9.410324-3.567392-4.771677-7.441788-8.798387-11.621141-12.082176-4.180377-3.282766-11.644678-7.003508-22.390857-11.183713-5.361321-1.793856-11.927122-4.332678-19.675914-7.593955-7.770282-3.304256-15.23356-7.615445-22.389834-13.000082-7.156273-5.361101-13.131603-12.233626-17.903475-20.572548-4.770849-8.360412-6.849269-18.800181-6.258797-31.340799 0-13.131065 3.873373-24.314779 11.643655-33.550117 7.747769-9.257851 17.136988-15.823384 28.190171-19.696598 11.029646-3.873214 22.520822-4.618181 34.448968-2.232854 11.949636 2.385327 22.389834 8.950859 31.34106 19.675108 6.565802 8.360412 11.184172 17.158798 13.876601 26.415626 2.669915 9.235338 4.180377 18.056238 4.464868 26.394137 0.305981 8.360412 0 15.823384-0.897476 22.388916s-1.64145 11.030218-2.232946 13.415544c-1.204481 4.770653-1.64145 8.950859-1.335469 12.540617 0.284491 3.567245 2.517436 8.05342 6.69679 13.415544 1.794953 2.998287 3.742384 5.975085 5.821827 8.950859 2.100934 2.998287 4.027898 5.668093 5.820804 8.054443 2.386448 2.385327 4.464868 5.076622 6.25982 8.05342 2.385424-3.567245 4.770849-6.850012 7.156273-9.826809 1.794953-2.99931 3.742384-5.821589 5.821827-8.513908 2.100934-2.691295 3.742384-4.618181 4.924351-5.820566 1.794953-2.976798 3.436403-6.259564 4.925375-9.848299 1.487948-3.567245 1.64145-9.54233 0.459483-17.902742-2.385424-14.903431-4.049389-29.085432-4.925375-42.500976-0.897476-13.438057 2.823417-27.007097 11.184172-40.729633 6.566825-10.745738 15.956044-18.056238 28.190171-21.929452s24.315775-4.487198 36.265411-1.794879c11.928146 2.692319 22.36732 8.644891 31.318546 17.902742 8.952249 9.256828 13.723098 21.929452 14.31357 38.036291C904.614161-77.334951 902.360748-66.743732 897.305408-58.689289zM704.85763-101.650753c-5.668325-5.668093-12.69361-8.491395-21.032874-8.491395-8.360754 0-15.386039 2.823302-21.033897 8.491395-5.690839 5.668093-8.513233 12.69309-8.513233 21.033036 0 8.359388 2.823417 15.363919 8.513233 21.032012 5.647858 5.668093 12.673143 8.512884 21.033897 8.512884 8.338241 0 15.364549-2.844791 21.032874-8.512884s8.491743-12.672624 8.491743-21.032012C713.349372-88.957663 710.525955-95.98266 704.85763-101.650753zM866.860802-112.396491c-6.258797-6.258541-13.875577-9.388834-22.827827-9.388834-8.951226 0-16.545493 3.130294-22.827827 9.388834-6.258797 6.282077-9.389219 13.876032-9.389219 22.826891 0 8.951883 3.130422 16.567327 9.389219 22.826891 6.282334 6.259564 13.876601 9.389858 22.827827 9.389858 8.952249 0 16.568006-3.130294 22.827827-9.389858 6.25982-6.258541 9.411733-13.875009 9.411733-22.826891C876.272534-98.520459 873.120622-106.114414 866.860802-112.396491zM670.386148 60.806269c-1.794953 2.975774-3.720894 6.871501-5.821827 11.643178-2.07842 4.770653-4.61837 9.826809-7.594266 15.2094-8.951226-7.15598-20.2889-10.745738-34.010975-10.745738L287.285543 76.913109c-15.517028 0-28.649654 5.362124-39.395833 16.107863-10.723665 10.745738-16.108523 23.876804-16.108523 39.394219 0 15.516392 5.383834 28.779464 16.108523 39.83117 10.746179 11.030218 23.877782 16.545838 39.395833 16.545838l335.672513 0c1.180944 11.95017 4.463845 23.724331 9.827212 35.367509 5.383834 11.620665 11.359164 22.520923 17.902452 32.67519 7.17981 11.337209 15.824032 22.673395 25.979739 34.010605l78.747662-92.203982 36.703404 58.193377L792.118524 524.450958 661.434922 524.450958c-16.108523 0-30.137602 3.588735-42.065748 10.745738s-21.776848 16.392342-29.546107 27.729551c-7.747769 11.358699-13.416094 23.438828-17.005999 36.263925-3.567392 12.825097-5.362344 25.212218-5.362344 37.138852L567.454723 748.208115 300.045671 748.208115l-75.420757 0-71.152372 0c-8.601241 0-17.180992-3.261277-23.746793-9.826809-6.544311-6.544043-9.827212-15.144932-9.827212-23.724331l0-81.917708 0-68.020186 0-542.410614 0-81.895195c0-8.579399 3.282901-17.180288 9.827212-23.724331 6.565802-6.565533 15.145552-9.848299 23.746793-9.848299l81.898551 0 334.775036 0c-0.612986 7.768941-1.203457 16.282848-1.794953 25.518187-0.590472 9.257851-1.487948 19.850094-2.691406 31.778774-1.794953 17.311271 2.975896 31.624255 14.312547 42.960441 11.337674 11.337209 24.184786 20.288069 38.498357 26.853601 16.721508 7.15598 35.805928 12.825097 57.298285 17.005302C674.566525 53.933745 672.771573 57.216511 670.386148 60.806269zM622.959079 412.571868c15.495537 0 28.780643-5.51562 39.832803-16.567327 11.030669-11.030218 16.546516-24.314779 16.546516-39.832194s-5.515846-28.64848-16.546516-39.371706c-11.05216-10.745738-24.337265-16.107863-39.832803-16.107863L287.285543 300.692778c-15.517028 0-28.649654 5.362124-39.395833 16.107863-10.723665 10.723226-16.108523 23.855314-16.108523 39.371706s5.383834 28.779464 16.108523 39.832194c10.746179 11.051707 23.877782 16.567327 39.395833 16.567327L622.959079 412.571868zM792.118524 581.725406l0 14.334473L792.118524 714.657998c0 8.579399-3.262434 17.180288-9.828235 23.724331-6.544311 6.565533-15.145552 9.826809-23.725303 9.826809L625.627971 748.209138l-1.793929 0L623.834042 637.226464l0 11.643178c0-17.180288 6.565802-34.360576 19.675914-47.470151 13.110113-13.109576 30.291105-19.675108 47.472096-19.675108l0 0L792.118524 581.724383z"  horiz-adv-x="1024" />

    
    <glyph glyph-name="xiazai1" unicode="&#59024;" d="M915.972635 321.318538c-14.129812 0-25.582655-11.453866-25.582655-25.582655l0-364.297007c0-8.463766-6.885827-15.349593-15.349593-15.349593l-736.780463 0c-8.463766 0-15.349593 6.885827-15.349593 15.349593l0 364.297007c0 14.128789-11.453866 25.582655-25.582655 25.582655s-25.582655-11.453866-25.582655-25.582655l0-364.297007c0-36.676317 29.838585-66.514903 66.514903-66.514903l736.780463 0c36.676317 0 66.514903 29.838585 66.514903 66.514903l0 364.297007C941.55529 309.864672 930.102447 321.318538 915.972635 321.318538zM488.561172 36.145613c4.995781-4.995781 11.541871-7.492648 18.090007-7.492648s13.094226 2.496867 18.090007 7.492648l241.500263 241.500263c9.990538 9.990538 9.990538 26.188452 0 36.178991-9.991562 9.990538-26.188452 9.990538-36.178991 0L532.23281 115.997266 532.23281 709.151587c0 14.128789-11.453866 25.582655-25.582655 25.582655-14.128789 0-25.582655-11.453866-25.582655-25.582655l0-593.154321L283.239899 313.82589c-9.991562 9.990538-26.188452 9.990538-36.178991 0-9.990538-9.990538-9.990538-26.188452 0-36.178991L488.561172 36.145613z"  horiz-adv-x="1024" />

    
    <glyph glyph-name="feiji" unicode="&#59469;" d="M6.32570197 279.40788224000005L1010.70599282 871.07002823 875.64776675 84.97060864000002 482.69818653 173.45703253 780.17557277 597.26043136 375.00089458 196.74293362000003ZM470.47308857 112.91369017L488.51966179-98.67597823999995 598.54554453 84.97060864000002Z"  horiz-adv-x="1024" />

    
    <glyph glyph-name="chaxun" unicode="&#58970;" d="M948.929234-91.084093c-6.365988-6.357801-14.826684-9.859555-23.812335-9.859555-8.990768 0-17.446347 3.501754-23.808242 9.851369l-59.968813 59.968813c-24.449855-15.699564-53.43705-24.925692-84.59263-24.925692-86.641289 0-157.131737 70.486354-157.131737 157.127643 0 86.637196 70.490447 157.127643 157.131737 157.127643 86.637196 0 157.127643-70.490447 157.127643-157.127643 0-31.143301-9.226129-60.129472-24.913413-84.576257l59.960627-59.968813C962.050066-56.596627 962.050066-77.954051 948.929234-91.084093zM756.605997 205.604096c-57.564044 0-104.390535-46.826492-104.390535-104.390535 0-57.554834 46.826492-104.386442 104.390535-104.386442 20.678972 0 39.918151 6.117324 56.155974 16.527418 12.673647 8.133238 23.461341 18.903535 31.610952 31.556717 10.472516 16.262382 16.622586 35.55989 16.622586 56.301284C860.996532 158.777605 814.170041 205.604096 756.605997 205.604096zM593.534991 298.119163c6.92062-2.015913 13.551644-4.511757 20.332071-6.767124-17.318434-11.507078-29.190833-25.898857-42.606377-41.697681-16.842597 4.734838-36.775578 12.026918-53.448306 15.366989-19.019169-5.128811-38.639019-11.82021-59.256592-11.82021-29.16832 0-56.843636 6.009877-82.526575 15.989159-128.620379-16.182564-229.082442-92.771917-271.124977-198.618617l0-79.670527c0-6.730285 2.619664-13.05534 7.371898-17.802458 4.7727-4.7727 11.096732-7.392364 17.827017-7.392364L568.56325-34.293669c13.245675-15.513322 27.931143-29.702486 44.947701-41.056068l-472.685599 0c-20.203134 0-39.189557 7.877411-53.457516 22.160719-14.263865 14.247492-22.13616 33.233915-22.13616 53.43705l0 89.066525 1.659803 4.354168c41.23003 107.797122 137.40444 176.461991 246.231007 213.07691-50.721195 42.075281-83.760682 104.758925-83.760682 175.650509 0 126.369106 102.821807 229.190913 229.195006 229.190913 126.369106 0 229.190913-102.821807 229.190913-229.190913C687.7467 406.635669 650.357138 339.871079 593.534991 298.119163zM458.490296 669.146455c-102.957907 0-186.718589-83.760682-186.718589-186.722682 0-102.957907 83.760682-186.718589 186.718589-186.718589 102.962 0 186.722682 83.760682 186.722682 186.718589C645.212978 585.386796 561.452295 669.146455 458.490296 669.146455z"  horiz-adv-x="1024" />

    
    <glyph glyph-name="jiantouright" unicode="&#59020;" d="M784.754 396.052l-490.285 477.839-55.479-54.114 434.746-423.692-434.711-423.691 55.44-54.115z"  horiz-adv-x="1024" />

    
    <glyph glyph-name="zhuye1" unicode="&#58953;" d="M832.807 721.37h-96.191v-128.669l96.191-80.005zM158.448 337.709l335.642 286.071 338.716-263.098 35.176-30.673 93.76-81.558v102.634l-471.070 363.301-428.416-363.301v-103.182l96.191 92.064zM496.349 515.283l-337.901-288.22v-372.804l10.754 0.37h246.096v224.104h128.937v-224.104h288.572v399.311z"  horiz-adv-x="1024" />

    
    <glyph glyph-name="leixing" unicode="&#58993;" d="M148.408224-212c-45.867267 0-96.99366 0.360214-108.808683 0.432257l-38.80707 0.408243-0.360214 38.759041c-0.264157 40.127855-0.792471 137.4337 0.024014 174.031456 1.969171 86.667521 25.599218 153.283122 70.265771 197.92566 45.459024 45.507052 105.999013 70.529928 170.429315 70.529928 64.454316 0 124.970291-25.022875 170.453329-70.529928 45.459024-45.43501 70.481899-105.950984 70.481899-170.381286 0-64.47833-25.022875-124.970291-70.481899-170.453329-44.618524-44.618524-111.210111-68.272586-197.901646-70.289785C199.006303-211.879929 174.55977-212 148.408224-212zM55.569034-156.45498c37.534313-0.216128 123.289291-0.624371 156.789206 0.120071 71.994799 1.680999 125.858819 19.907835 160.103176 54.128177 35.036828 35.036828 54.320292 81.672552 54.320292 131.382102 0 49.661522-19.283463 96.32126-54.296277 131.334074-35.036828 35.012814-81.672552 54.320292-131.382102 54.320292-49.661522 0-96.32126-19.307478-131.334074-54.320292-34.268371-34.268371-52.495207-88.156406-54.128177-160.12719C54.968677-31.436661 55.304877-110.971942 55.569034-156.45498zM241.127342 329.93016c-64.430302 0-124.970291 25.022875-170.429315 70.481899-44.642539 44.690567-68.2966 111.282154-70.265771 197.949675C-0.384228 634.935475 0.1681 732.265335 0.432257 772.417204l0.360214 38.831084 38.80707 0.312186c18.515007 0.144086 133.687473 0.912542 174.031456 0 86.691535-1.993185 153.283122-25.623232 197.949675-70.313799 45.459024-45.43501 70.481899-105.950984 70.481899-170.381286s-25.022875-124.970291-70.481899-170.429315C366.097633 354.977049 305.581658 329.93016 241.127342 329.93016zM55.569034 756.423696C55.304877 710.940658 54.968677 631.405377 55.665091 599.610476c1.632971-71.970784 19.859806-125.858819 54.128177-160.12719 34.9888-35.012814 81.648537-54.296277 131.334074-54.296277 49.685536 0 96.345274 19.283463 131.382102 54.296277 34.9888 35.012814 54.296277 81.672552 54.296277 131.358088S407.522259 667.186648 372.509445 702.175447c-34.268371 34.268371-88.132392 52.495207-160.12719 54.128177C178.858325 757.048067 93.103347 756.639824 55.569034 756.423696zM875.60852-212c-26.151546 0-50.574065 0.120071-65.222773 0.456271-86.71555 2.017199-153.33115 25.671261-197.92566 70.289785-45.483038 45.483038-70.505913 105.974999-70.505913 170.453329 0 64.430302 25.04689 124.946276 70.505913 170.381286 45.483038 45.507052 105.974999 70.529928 170.429315 70.529928s124.946276-25.022875 170.429315-70.529928c44.642539-44.642539 68.2966-111.234125 70.265771-197.92566 0.8405-36.597756 0.312186-133.903601 0.024014-174.031456l-0.3362-38.759041-38.831084-0.408243C972.578166-211.639786 921.451773-212 875.60852-212zM782.889402 214.805722c-49.685536 0-96.32126-19.307478-131.358088-54.320292s-54.320292-81.672552-54.320292-131.334074c0-49.685536 19.283463-96.345274 54.320292-131.382102 34.244357-34.220343 88.108378-52.447178 160.12719-54.128177 33.4759-0.720428 119.230879-0.3362 156.789206-0.120071 0.264157 45.483038 0.600357 125.018319-0.120071 156.81322-1.632971 71.970784-19.835792 125.858819-54.128177 160.12719C879.186648 195.522259 832.574938 214.805722 782.889402 214.805722zM782.889402 329.93016c-64.454316 0-124.946276 25.022875-170.429315 70.481899-45.459024 45.459024-70.505913 105.999013-70.505913 170.429315s25.04689 124.946276 70.505913 170.381286c44.618524 44.690567 111.210111 68.320614 197.92566 70.313799 40.295955 0.888528 155.444407 0.120071 174.031456 0l38.831084-0.312186 0.3362-38.831084c0.288171-40.151869 0.816485-137.457714-0.024014-174.05547-1.969171-86.643507-25.599218-153.259107-70.265771-197.949675C907.835678 354.977049 847.319704 329.93016 782.889402 329.93016zM875.60852 756.735882c-25.647246 0-49.589479-0.120071-63.950016-0.432257-71.994799-1.632971-125.882833-19.859806-160.12719-54.128177-35.036828-35.012814-54.320292-81.648537-54.320292-131.334074s19.283463-96.345274 54.320292-131.358088c35.036828-35.012814 81.648537-54.296277 131.358088-54.296277s96.32126 19.283463 131.334074 54.296277c34.292386 34.268371 52.495207 88.156406 54.128177 160.12719 0.720428 31.794901 0.384228 111.330182 0.120071 156.789206C946.978948 756.543767 909.828863 756.735882 875.60852 756.735882z"  horiz-adv-x="1025" />

    
    <glyph glyph-name="tongzhi" unicode="&#58971;" d="M904.293487 10.250162l-75.138399 132.191607L829.155088 418.718299c0 57.605993-20.926644 118.339945-58.927286 171.013-38.656232 53.5865-92.928659 95.517313-152.813207 118.068608-0.348862 0.131455-0.701094 0.254484-1.055012 0.369086-1.373537 0.44324-6.476693 2.072946-13.974691 4.228473l0 9.201858c0 49.846771-40.553905 90.400675-90.400675 90.400675s-90.400675-40.553905-90.400675-90.400675l0-8.539527c-6.983975-1.995421-11.411316-3.414462-11.918598-3.579624-0.26291-0.084266-0.52582-0.175273-0.78536-0.269652-60.799679-22.015362-115.999032-63.900671-155.428827-117.938838-38.711848-53.052253-60.029487-114.333934-60.029487-172.55507L193.42127 142.438398l-80.40503-141.509752c-9.673749-16.865018-9.613077-37.862445 0.166847-54.806673 9.720938-16.834682 27.915675-27.292105 47.485634-27.292105L359.363136-81.170134c11.392777-73.990695 75.494002-130.829866 152.622766-130.829866 77.128764 0 141.231674 56.839172 152.622766 130.829866l198.660709 0c30.286923 0 54.926331 24.609073 54.926331 54.857233C918.195708-12.580896 913.286365 0.261258 904.293487 10.250162zM511.985902 764.810982c23.088912 0 42.006652-18.203164 43.156042-41.010627-4.843616 0.916815-9.747903 1.756106-14.625225 2.465626-2.089799 0.303358-4.177913 0.320211-6.215468 0.077525-0.840976 0.123029-1.697119 0.251113-2.56506 0.384253-6.028397 0.910074-12.860693 1.939806-20.481719 1.939806-7.614285 0-14.44321-1.029732-20.469922-1.93812-0.738171-0.111231-1.46623-0.220777-2.184177-0.326952-2.111709 0.284819-4.275662 0.28819-6.446357-0.016853-4.44588-0.625254-8.8985-1.353314-13.288764-2.150471C470.228678 746.837022 489.043613 764.810982 511.985902 764.810982zM511.985902-164.810982c-51.02144 0-93.805026 35.829947-104.586031 83.640849l209.173748 0C605.790928-128.981035 563.007342-164.810982 511.985902-164.810982zM863.269377-33.981116 160.670406-33.981116c-2.765614 0-5.302023 1.419041-6.61826 3.695911-1.403873 2.43192-1.442636 5.394716-0.05393 7.818209l83.532988 147.014014c2.019016 3.550974 3.080769 7.568781 3.080769 11.655687L240.611973 418.718299c0 102.123776 79.029807 207.786728 183.907399 245.969384 3.448169 1.088718 30.570057 9.510272 57.92789 14.008397 1.628021-0.178644 3.288063-0.190441 4.956532-0.018539 3.682429 0.374141 7.105318 0.891535 10.41529 1.390391 5.020574 0.75671 9.356908 1.410615 13.432017 1.410615 4.08185 0 8.419869-0.653905 13.443814-1.4123 3.306602-0.498855 6.72612-1.014564 10.403493-1.388705 1.510049-0.153364 3.011671-0.160106 4.488013-0.02865 28.392621-4.755979 57.364992-13.819641 61.736718-15.213402 103.027108-39.055653 180.644616-144.159079 180.644616-244.71719l0-282.513908c0-4.088591 1.061753-8.106399 3.082454-11.659058l79.663489-140.151383c1.112313-1.958344 2.501018-3.749842 4.122298-5.31382 1.400503-1.353314 2.17238-3.266154 2.17238-5.391345C871.006691-30.612157 867.609081-33.981116 863.269377-33.981116z"  horiz-adv-x="1024" />

    
    <glyph glyph-name="feiji1" unicode="&#58998;" d="M437.51303-98.130579l40.420595 0c0 0 0.511653 179.122587 0 192.681394s5.348821 28.418236 11.256368 35.304064c5.90857 6.885827 448.719768 522.910491 448.719768 522.910491S815.694255 28.21192 814.067198 19.931327c-1.257643-6.393617-5.434779-9.121751-11.234879-7.245008-6.997368 2.2656-262.47804 81.864496-262.47804 81.864496l-12.982686-39.397289c0 0 242.571664-76.187193 266.762623-83.399455 26.605961-7.930623 54.235229 9.209756 59.863413 39.397289 4.644787 24.90625 131.175575 668.910703 133.031852 680.496575 1.853208 11.583826 6.979972 27.970028-12.515035 37.379329-14.432711 6.966669-31.828916-8.045233-31.828916-8.045233l-5.458315 10.576893c0 0-820.094984-437.890118-849.344145-453.665407s-27.951609-49.001017-3.41068-56.965409c24.540929-7.963369 272.199449-88.344071 272.199449-88.344071l12.621459 38.885636-244.910942 78.794577 765.433036 409.66324c0 0-409.322479-476.860688-426.207032-496.303506s-26.383904-39.653115-26.350135-65.23577C437.290973 72.803511 437.51303-98.130579 437.51303-98.130579z"  horiz-adv-x="1024" />

    
    <glyph glyph-name="redo1" unicode="&#58919;" d="M576 647.616l0 248.384 384-384-384-384 0 253.824c-446.752 10.496-427.584-303.776-313.856-509.824-280.704 303.424-221.088 789.568 313.856 775.616z"  horiz-adv-x="1024" />

    
    <glyph glyph-name="fanhui1" unicode="&#59252;" d="M276.999778 422.652322l595.889619 0 0-77.289294L276.999778 345.363028 571.131749 85.526141l-56.592926-54.657854L149.378146 384.004093l28.297486 27.328415 336.861144 325.798181 56.592926-54.642504L276.999778 422.652322z"  horiz-adv-x="1024" />

    
    <glyph glyph-name="youjiantou" unicode="&#59171;" d="M278.801-63.941l465.423 447.695-465.423 447.353v-895.048zM278.801-63.941z"  horiz-adv-x="1024" />

    
    <glyph glyph-name="zuanshi" unicode="&#58986;" d="M277.319 781.581l194.604 0-166.489-226.222-218.851 0 190.736 226.222zM721.879 515.212l214.833 0-369.573-438.871 154.739 438.871zM355.286 555.357l156.34 212.428 156.352-212.428-312.691 0zM679.316 515.212l-167.692-475.583-167.674 475.583 335.364 0zM301.378 515.212l154.738-438.871-369.568 438.871 214.83 0zM936.673 555.357l-218.848 0-166.501 226.222 194.626 0 190.723-226.222zM995.201 548.222l-224.574 266.367c-3.809 4.525-9.424 7.135-15.345 7.135l-487.291 0c-5.918 0-11.533-2.61-15.347-7.135l-224.587-266.367c-5.034-5.967-6.15-14.317-2.858-21.398 0.762-1.629 1.769-3.094 2.894-4.428l-0.045-0.041 483.578-574.258 483.536 574.299c1.129 1.333 2.133 2.799 2.894 4.428 3.295 7.083 2.181 15.433-2.852 21.398z"  horiz-adv-x="1024" />

    
    <glyph glyph-name="geonecompile" unicode="&#59023;" d="M960 428l0-512c0-35.2-34.4-64-69.6-64L127.2-148c-35.2 0-63.2 28.8-63.2 64L64 678.4C63.2 713.6 92.8 748 128 748l512 0L640 812 128 812C57.6 812 0 748.8 0 678.4l0-763.2c0-70.4 56.8-127.2 127.2-127.2l763.2 0c70.4 0 133.6 57.6 133.6 128L1024 428 960 428zM259.2 233.6l-137.6-278.4c-11.2-31.2 13.6-59.2 44.8-44.8l278.4 137.6c12 2.4 24 7.2 32.8 16l494.4 495.2c24.8 24.8 24.8 64.8 0 89.6L860 761.6c-24.8 24.8-64.8 24.8-89.6 0L276 266.4C266.4 257.6 261.6 245.6 259.2 233.6zM792.8 694.4c12.8 12.8 32.8 12.8 44.8 0l67.2-67.2c12.8-12.8 12.8-32.8 0-44.8l-67.2-67.2L727.2 628 792.8 694.4zM680 580.8l112.8-112-360-360c-42.4 42.4-100.8 100.8-112 112.8L680 580.8zM376.8 75.2l-172-104c-16-7.2-29.6 8-22.4 22.4l104 172L376.8 75.2z"  horiz-adv-x="1024" />

    
    <glyph glyph-name="refrush" unicode="&#58934;" d="M928.064 660.352c-16.704 5.44-34.88-3.584-40.448-20.288l-49.152-148.096c-43.712 187.328-208 320.96-403.456 320.96-229.376 0-416-186.624-416-416s186.624-416 416-416c86.208 0 168.896 26.112 239.104 75.584 14.464 10.176 17.92 30.144 7.744 44.544-10.176 14.528-30.144 17.984-44.544 7.744-59.392-41.792-129.344-63.872-202.304-63.872-194.112 0-352 157.888-352 352s157.888 352 352 352c174.016 0 320.192-124.48 347.584-296 0.576-3.712 0.448-7.616 0.896-11.328L621.504 531.456C606.016 540.1600000000001 586.624 534.4639999999999 578.048 519.04 569.408 503.552 575.04 484.096 590.464 475.52l227.968-126.528c0.704-0.384 12.48-4.672 29.504 1.984 11.52 4.48 16.384 22.528 21.568 33.024 29.76 59.776 78.784 235.52 78.784 235.52C953.92 636.288 944.832 654.784 928.064 660.352z"  horiz-adv-x="1024" />

    
    <glyph glyph-name="database" unicode="&#58982;" d="M925.0304 729.6192c-25.4464 16.6912-61.0816 31.488-105.9328 43.9296-89.1904 24.7808-207.36 38.4-332.6976 38.4s-243.5072-13.6704-332.6976-38.4c-44.9024-12.4416-80.5376-27.2384-105.9328-43.9296-31.6928-20.8384-47.7696-44.7488-47.7696-71.2192l0-614.4c0-26.4704 16.0768-50.432 47.7696-71.2192 25.4464-16.6912 61.0816-31.488 105.9328-43.9296 89.1904-24.7808 207.36-38.4 332.6976-38.4s243.5072 13.6704 332.6976 38.4512c44.9024 12.4416 80.5376 27.2384 105.9328 43.9296 31.6928 20.7872 47.7696 44.7488 47.7696 71.2192l0 614.4c0 26.4704-16.0768 50.432-47.7696 71.2192zM167.424 724.2432c84.8896 23.552 198.144 36.5568 318.976 36.5568s234.1376-13.0048 318.976-36.5568c91.904-25.5488 116.224-54.2208 116.224-65.8432s-24.2688-40.2944-116.224-65.8432c-84.8896-23.552-198.144-36.5568-318.976-36.5568s-234.1376 13.0048-318.976 36.5568c-91.904 25.5488-116.224 54.2208-116.224 65.8432s24.2688 40.2944 116.224 65.8432zM805.376-21.8432c-84.8896-23.552-198.144-36.5568-318.976-36.5568s-234.1376 13.0048-318.976 36.5568c-91.904 25.5488-116.224 54.2208-116.224 65.8432l0 131.3792c25.1904-15.8208 59.5968-29.8496 102.5024-41.7792 89.1904-24.7808 207.36-38.4 332.6976-38.4s243.5072 13.6704 332.6976 38.4512c42.9056 11.9296 77.3632 25.9584 102.5024 41.7792l0-131.3792c0-11.6224-24.2688-40.2944-116.224-65.8432zM805.376 182.9568c-84.8896-23.552-198.144-36.5568-318.976-36.5568s-234.1376 13.0048-318.976 36.5568c-91.904 25.5488-116.224 54.2208-116.224 65.8432l0 131.3792c25.1904-15.8208 59.5968-29.8496 102.5024-41.7792 89.1904-24.7808 207.36-38.4 332.6976-38.4s243.5072 13.6704 332.6976 38.4c42.9056 11.9296 77.3632 25.9584 102.5024 41.7792l0-131.3792c0-11.6224-24.2688-40.2944-116.224-65.8432zM805.376 387.7568c-84.8896-23.552-198.144-36.5568-318.976-36.5568s-234.1376 13.0048-318.976 36.5568c-91.904 25.5488-116.224 54.2208-116.224 65.8432l0 131.3792c25.1904-15.8208 59.5968-29.8496 102.5024-41.7792 89.1904-24.7808 207.36-38.4 332.6976-38.4s243.5072 13.6704 332.6976 38.4c42.9056 11.9296 77.3632 25.9584 102.5024 41.7792l0-131.3792c0-11.6224-24.2688-40.2944-116.224-65.8432z"  horiz-adv-x="1024" />

    
    <glyph glyph-name="yuandian" unicode="&#58966;" d="M676.58 300.659c0-91.537-74.204-165.742-165.741-165.742-91.537 0-165.742 74.205-165.742 165.742 0 91.536 74.205 165.741 165.742 165.741C602.376 466.4 676.58 392.195 676.58 300.659zM511.842-145.081c-60.433 0-119.072 11.842-174.289 35.196-53.32 22.552-101.2 54.832-142.312 95.943S121.85 75.051 99.298 128.37c-23.354 55.217-35.196 113.855-35.196 174.289 0 60.433 11.842 119.072 35.196 174.289 22.552 53.32 54.833 101.2 95.944 142.312s88.992 73.392 142.312 95.944c55.216 23.354 113.855 35.196 174.289 35.196 60.434 0 119.072-11.842 174.289-35.196 53.319-22.552 101.2-54.833 142.312-95.944s73.392-88.992 95.943-142.312c23.354-55.216 35.196-113.855 35.196-174.289 0-60.434-11.842-119.072-35.196-174.289-22.552-53.319-54.832-101.2-95.943-142.312s-88.992-73.392-142.312-95.943C630.914-133.239 572.275-145.081 511.842-145.081zM511.842 699.376c-218.75 0-396.717-177.966-396.717-396.717 0-218.75 177.966-396.717 396.717-396.717 218.75 0 396.717 177.967 396.717 396.717C908.559 521.41 730.592 699.376 511.842 699.376z"  horiz-adv-x="1024" />

    
    <glyph glyph-name="shoucangkong" unicode="&#58973;" d="M778.478908-106.49599999999998c-12.288 0-24.576 3.072-37.888 10.24L533.742908 12.288000000000011c-5.12 3.072-12.288 5.12-20.48 5.12-7.168 0-15.36-2.048-20.48-4.096L286.958908-96.25599999999997c-12.288-7.168-24.576-10.24-38.912-10.24-24.576 0-48.128 11.264-64.512 29.696-16.384 18.432-22.528 43.008-18.432 67.584L205.038908 220.15999999999997c2.048 14.336-3.072 28.672-13.312 38.912L25.838908 419.84c-23.552 22.528-31.744 55.296-21.504 86.016 10.24 30.72 35.84 52.224 67.584 57.344l229.376 33.792c14.336 2.048 27.648 11.264 33.792 23.552l102.4 208.896C451.822908 858.112 480.494908 875.52 512.238908 875.52c31.744 0 60.416-17.408 74.752-46.08l102.4-208.896c7.168-13.312 19.456-21.504 33.792-23.552L952.558908 563.2c31.744-5.12 57.344-26.624 67.584-56.32 10.24-30.72 2.048-63.488-20.48-86.016L834.798908 259.072c-11.264-10.24-15.36-24.576-13.312-38.912L860.398908-8.192000000000007c4.096-24.576-2.048-49.152-18.432-67.584C826.606908-95.23199999999997 803.054908-106.49599999999998 778.478908-106.49599999999998zM765.166908-44.03200000000004c5.12-2.048 9.216-3.072 12.288-3.072 7.168 0 14.336 3.072 19.456 9.216 5.12 6.144 6.144 14.336 5.12 19.456l-38.912 228.352c-6.144 32.768 5.12 68.608 29.696 91.136l164.864 162.816c6.144 6.144 8.192 15.36 6.144 25.6-3.072 9.216-10.24 15.36-20.48 16.384l-229.376 33.792c-33.792 5.12-63.488 25.6-77.824 56.32l-102.4 207.872c-4.096 9.216-12.288 13.312-21.504 13.312-9.216 0-17.408-5.12-22.528-14.336l-102.4-206.848c-14.336-29.696-44.032-51.2-77.824-56.32L80.110908 505.856c-9.216-2.048-16.384-8.192-19.456-16.384l0-1.024c-3.072-9.216-1.024-17.408 6.144-24.576l165.888-162.816c24.576-23.552 34.816-57.344 29.696-91.136l-38.912-228.352c-1.024-5.12-1.024-12.288 5.12-18.432 5.12-6.144 12.288-9.216 19.456-9.216 5.12 0 8.192 1.024 11.264 2.048l206.848 108.544c13.312 8.192 29.696 12.288 47.104 12.288 15.36 0 31.744-4.096 47.104-12.288L765.166908-44.03200000000004z"  horiz-adv-x="1025" />

    
    <glyph glyph-name="jiahao" unicode="&#59006;" d="M64.695529 439.912995l894.608942 0 0-111.82599-894.608942 0L64.695529 439.912995zM456.087005-63.30549399999995L456.087005 831.304471l111.82599 0 0-894.609965L456.087005-63.30549399999995z"  horiz-adv-x="1024" />

    
    <glyph glyph-name="shape" unicode="&#59026;" d="M705.424539 545.059119C710.341942 553.494396 710.341942 567.679279 705.424539 576.190239 697.972736 589.126865 681.177802 593.779518 658.103699 593.779518L654.699334 593.779518 254.609501 593.779518 238.722408 593.779518C203.127765 593.779518 187.202852 576.606324 187.202852 559.735738 187.202852 548.728266 193.822472 538.855571 205.321697 532.954663 213.983943 528.528966 225.256209 521.039337 238.722408 521.039337L658.179351 521.039337C681.177802 521.039337 697.93491 532.160318 705.424539 545.059119L705.424539 545.059119ZM187.1272 412.061471C187.1272 401.091824 193.671165 389.138672 205.094738 383.199938 213.756984 378.774241 224.953598 375.559005 238.344142 375.559005L560.549423 375.559005 565.958594 383.27559C575.944766 394.056107 586.384849 405.630999 597.014063 413.990625L638.358311 448.337012 238.344142 448.337012C202.938632 448.299186 187.1272 428.932057 187.1272 412.061471L187.1272 412.061471ZM884.75949 442.511725C895.010444 437.556464 906.585305 432.185119 916.041914 426.019429L945.659997 407.787109 945.659997 734.531545C945.659997 792.632902 893.799983 812 860.853186 812L860.853186 812 97.70559 812 97.554283 812C64.72097 812 0 792.632902 0 734.531545L0-128.137317C0-186.692585 64.834448-206.400147 97.667764-206.400147L97.667764-206.400147 860.81536-206.400147C920.808045-206.400147 945.622171-160.214117 945.622171-128.137317L945.622171-50.895818 902.99181-11.783331 872.88199-25.854736 872.88199-128.742563C872.88199-128.780389 873.411553-131.049945 870.347621-134.18956 868.456293-136.194335 865.732794-133.659966 860.853186-133.659966L97.667764-133.659966C94.074256-133.659966 72.740166-140.809162 72.740166-128.137317L72.740166 734.531545C72.740166 737.557651 84.088087 739.25985 97.667764 739.25985L860.81536 739.25985C865.884098 739.25985 872.88199 745.539018 872.88199 734.531545L872.88199 447.466985 884.75949 442.511725 884.75949 442.511725ZM1049.947384-4.104572 920.808045 121.895184C940.553433 152.723696 951.976991 189.074859 951.976991 227.998216 951.976991 339.245669 858.886237 429.423794 744.083115 429.423794 629.317818 429.423794 536.227033 339.245669 536.227033 227.998216 536.227033 116.750794 629.317818 26.572637 744.083115 26.572637 793.635685 26.572637 839.140848 43.367571 874.84897 71.43476L1000.962172-51.576685C1007.733108-58.120665 1018.702755-58.120665 1025.473691-51.576685L1049.98521-27.821715C1056.718289-21.277735 1056.718289-10.648522 1049.947384-4.104572L1049.947384-4.104572 1049.947384-4.104572ZM593.987956 226.74996C593.987956 307.471476 661.508065 372.873332 744.801808 372.873332 828.09555 372.873332 895.615659 307.471476 895.615659 226.74996 895.615659 146.028412 828.09555 80.626587 744.801808 80.626587 661.508065 80.626587 593.987956 146.066238 593.987956 226.74996L593.987956 226.74996 593.987956 226.74996Z"  horiz-adv-x="1056" />

    
    <glyph glyph-name="appshusandian" unicode="&#59397;" d="M427.674964 301.382487c0 21.976524 9.05626 43.810808 24.586978 59.359946 15.531741 15.540951 37.383422 24.578792 59.352783 24.578792 21.983687 0 43.818995-9.03784 59.369156-24.578792 15.549138-15.549138 24.585955-37.383422 24.585955-59.359946s-9.036817-43.821041-24.585955-59.370179c-15.549138-15.540951-37.384445-24.577768-59.369156-24.577768-21.969361 0-43.821041 9.036817-59.352783 24.577768C436.731224 257.561445 427.674964 279.405963 427.674964 301.382487L427.674964 301.382487zM427.674964 633.898673c0 21.976524 9.05626 43.829228 24.586978 59.350736 15.531741 15.540951 37.383422 24.597211 59.352783 24.597211 21.983687 0 43.818995-9.05626 59.369156-24.597211 15.549138-15.521508 24.585955-37.374212 24.585955-59.350736s-9.036817-43.830251-24.585955-59.370179c-15.549138-15.529695-37.384445-24.585955-59.369156-24.585955-21.969361 0-43.821041 9.05626-59.352783 24.585955C436.731224 590.068422 427.674964 611.922149 427.674964 633.898673L427.674964 633.898673zM427.674964-31.143932c0 21.977547 9.05626 43.829228 24.586978 59.370179 15.531741 15.539928 37.383422 24.586978 59.352783 24.586978 21.983687 0 43.818995-9.048073 59.369156-24.586978 15.549138-15.540951 24.585955-37.392632 24.585955-59.370179 0-21.976524-9.036817-43.801599-24.585955-59.350736-15.549138-15.540951-37.384445-24.586978-59.369156-24.586978-21.969361 0-43.821041 9.04705-59.352783 24.586978C436.731224-74.944508 427.674964-53.119433 427.674964-31.143932L427.674964-31.143932zM427.674964-61.843118"  horiz-adv-x="1024" />

    
    <glyph glyph-name="mm" unicode="&#58880;" d="M810.568003 447.980173 810.568003 533.286048c0 164.893514-85.684498 298.56698-298.569026 298.56698-214.355019 0-298.569026-133.673465-298.569026-298.56698l0-85.304851c-23.557532 0-42.652426-19.097964-42.652426-42.654472l0-426.526303c0-23.554462 19.095917-42.650379 42.652426-42.650379l597.137029 0c23.557532 0 42.652426 19.095917 42.652426 42.650379L853.219405 405.325701C853.221452 428.88221 834.125535 447.980173 810.568003 447.980173zM298.736848 533.286048c0 117.78152 63.019289 213.263152 213.263152 213.263152 147.422607 0 213.263152-95.482655 213.263152-213.263152l0-85.304851L298.736848 447.981197 298.736848 533.286048zM533.325701 152.099373l0-87.995123-42.652426 0 0 87.995123c-36.791951 9.469676-63.97915 42.86732-63.97915 82.617649 0 47.111994 38.192857 85.304851 85.304851 85.304851 47.111994 0 85.304851-38.192857 85.304851-85.304851C597.304851 194.966693 570.118676 161.569048 533.325701 152.099373z"  horiz-adv-x="1024" />

    
    <glyph glyph-name="xiajiantou" unicode="&#58881;" d="M532.916 247.661c0.167 0.166 0.309 0.347 0.471 0.517l204.418 202.794c9.706 9.624 9.77 25.281 0.139 34.984-9.623 9.708-25.28 9.771-34.983 0.139l-187.355-185.861-185.86 187.35c-9.629 9.708-25.286 9.771-34.987 0.14-4.851-4.812-7.296-11.131-7.322-17.463-0.025-6.328 2.369-12.669 7.183-17.52l202.801-204.427c0.157-0.168 0.296-0.347 0.458-0.512 4.821-4.858 11.151-7.299 17.489-7.318 6.337-0.033 12.688 2.357 17.548 7.176z"  horiz-adv-x="1024" />

    
    <glyph glyph-name="radio-checked" unicode="&#59030;" d="M511.998 891.73c-275.194 0-498.281-222.816-498.281-497.679 0-274.857 223.088-497.672 498.281-497.672 275.197 0 498.285 222.816 498.285 497.672 0 274.863-223.088 497.679-498.285 497.679v0zM780.781 521.298l-337.036-336.62c-6.648-6.64-18.181-5.886-25.766 1.69l-22.591 22.563c0 0.005-0.005 0.005-0.005 0.010l-151.005 150.816c-7.579 7.575-7.579 19.849 0 27.423l41.181 41.131c7.584 7.575 19.873 7.575 27.457 0l118.692-118.547 280.434 280.089c6.648 6.64 18.181 5.886 25.761-1.69l41.185-41.13c7.585-7.571 8.34-19.094 1.692-25.734v0z"  horiz-adv-x="1024" />

    
    <glyph glyph-name="rizhiguanli" unicode="&#58996;" d="M162.369529 538.690128l40.932248 0 0-104.377232-40.932248 0 0 104.377232ZM162.369529 297.189865l40.932248 0 0-118.702496-40.932248 0 0 118.702496ZM868.165304 831.263603 249.508145 831.263603c-25.374924 0-48.707328-9.992585-65.700351-28.136827-17.124006-18.284435-26.554796-43.906999-26.554796-72.14718l0-51.073212 40.932248 0 0 51.073212c0 34.944883 21.104667 59.35176 51.322899 59.35176l116.499317 0 0-822.738184L249.508145-32.406828c-28.299533 0-51.322899 22.034852-51.322899 49.118698l0 62.513776 106.780978 0 0 61.398372-243.546875 0 0-61.398372 95.833649 0 0-62.513776c0-49.653887 41.385573-90.050945 92.255147-90.050945l618.657158 0c50.869574 0 92.255147 40.397059 92.255147 90.050945l0 724.500788C960.420451 790.866544 919.034878 831.263603 868.165304 831.263603zM406.939711-32.406828l0 822.738184 461.225593 0c28.299533 0 51.322899-22.034852 51.322899-49.118698l0-724.500788c0-1.503237-0.081864-2.988054-0.221034-4.456498L766.133489 191.682903c27.333532 30.450523 43.988864 70.672596 43.988864 114.716718 0 94.794993-77.120448 171.915441-171.915441 171.915441s-171.915441-77.120448-171.915441-171.915441 77.120448-171.915441 171.915441-171.915441c36.036751 0 69.512167 11.154038 97.17418 30.178323L896.552841-24.18354c-8.136308-5.190209-17.896602-8.223289-28.387537-8.223289L406.939711-32.406828zM638.206912 175.416428c-72.223928 0-130.983193 58.759265-130.983193 130.983193 0 72.224951 58.759265 130.983193 130.983193 130.983193s130.983193-58.758242 130.983193-130.983193C769.190105 234.175693 710.43084 175.416428 638.206912 175.416428zM61.41935 641.020748l243.546875 0 0-61.398372-243.546875 0 0 61.398372ZM61.41935 385.194198l243.546875 0 0-61.398372-243.546875 0 0 61.398372Z"  horiz-adv-x="1024" />

    
    <glyph glyph-name="shenglvehao" unicode="&#58958;" d="M500.092807 476.444459c-52.607148 0-95.252411-41.259706-95.252411-92.155886 0-50.897204 42.645263-92.155886 95.252411-92.155886 52.605102 0 95.250364 41.259706 95.250364 92.155886C595.344195 435.184753 552.697909 476.444459 500.092807 476.444459zM928.726098 476.444459c-52.607148 0-95.250364-41.259706-95.250364-92.155886 0-50.897204 42.643216-92.155886 95.250364-92.155886s95.252411 41.259706 95.252411 92.155886C1023.978509 435.184753 981.332223 476.444459 928.726098 476.444459zM95.271852 476.444459c-52.605102 0-95.250364-41.259706-95.250364-92.155886 0-50.897204 42.645263-92.155886 95.250364-92.155886 52.607148 0 95.252411 41.259706 95.252411 92.155886C190.524263 435.184753 147.879 476.444459 95.271852 476.444459z"  horiz-adv-x="1024" />

    
    <glyph glyph-name="sjiantour" unicode="&#58908;" d="M870.913 413.682l-350.588 344.38c-14.827 14.495-38.802 14.495-53.633 0-14.831-14.564-14.831-38.225 0-52.788l326.247-320.346-326.248-320.472c-14.831-14.564-14.831-38.107 0-52.667 14.831-14.564 38.807-14.564 53.633 0l350.591 344.255c8.159 7.95 11.431 18.504 10.754 28.884 0.678 10.307-2.593 20.808-10.754 28.753v0zM606.951 384.928c0.746 10.312-2.589 20.808-10.626 28.753l-350.594 344.38c-14.827 14.495-38.802 14.495-53.756 0-14.828-14.564-14.703-38.225 0-52.788l326.374-320.345-326.374-320.472c-14.703-14.564-14.828-38.107 0-52.667 14.955-14.564 38.93-14.564 53.756 0l350.593 344.255c8.037 7.949 11.372 18.504 10.626 28.884v0zM606.951 384.928z"  horiz-adv-x="1024" />

    
    <glyph glyph-name="biji" unicode="&#58903;" d="M277.504 384l251.904 0c13.312 0 21.504 8.192 21.504 21.504s-8.192 21.504-21.504 21.504L277.504 427.008c-13.312 0-21.504-8.192-21.504-21.504S264.192 384 277.504 384zM277.504 132.096l375.808 0c13.312 0 21.504 8.192 21.504 21.504 0 12.288-8.192 21.504-21.504 21.504L277.504 175.10400000000004c-13.312 0-21.504-8.192-21.504-21.504C256 145.40800000000002 264.192 132.096 277.504 132.096zM836.608 716.8L669.696 716.8l0 43.008c0 21.504-17.408 43.008-43.008 43.008l-84.992 0c0 21.504-17.408 43.008-43.008 43.008-21.504 0-43.008-17.408-43.008-43.008l-84.992 0c-21.504 0-43.008-17.408-43.008-43.008l0-43.008L171.008 716.8c-21.504 0-43.008-17.408-43.008-43.008l0-708.608c0-21.504 17.408-43.008 43.008-43.008l665.6 0c21.504 0 43.008 17.408 43.008 43.008L879.616 673.792C878.592 699.392 862.208 716.8 836.608 716.8zM379.904 759.808l251.904 0 0-84.992L379.904 674.816 379.904 759.808zM836.608-33.79200000000003l-665.6 0L171.008 549.8879999999999l665.6 0L836.608-33.79200000000003zM836.608 592.896l-665.6 0 0 84.992 165.888 0c0-21.504 17.408-43.008 43.008-43.008l251.904 0c21.504 0 43.008 17.408 43.008 43.008l166.912 0 0-84.992L836.608 592.896zM277.504 260.096l456.704 0c13.312 0 21.504 8.192 21.504 21.504s-8.192 21.504-21.504 21.504L277.504 303.10400000000004C264.192 299.00800000000004 256 289.79200000000003 256 281.6 256 269.312 264.192 260.096 277.504 260.096z"  horiz-adv-x="1024" />

    
    <glyph glyph-name="saveAll" unicode="&#59016;" d="M341.333333 640l128 0 0 42.666667-128 0L341.333333 640zM341.333333 725.333333l170.666667 0L512 768l-170.666667 0L341.333333 725.333333zM810.666667 853.333333L128 853.333333C81.066667 853.333333 42.666667 814.933333 42.666667 768l0-768c0-46.933333 38.4-85.333333 85.333333-85.333333l768 0c46.933333 0 85.333333 38.4 85.333333 85.333333L981.333333 682.666667 810.666667 853.333333zM298.666667 810.666667l426.666667 0 0-256L298.666667 554.666667 298.666667 810.666667zM810.666667-42.66666699999996L213.333333-42.66666699999996 213.333333 341.33333300000004l597.333333 0L810.666667-42.66666699999996zM938.666667 0c0-23.466667-19.2-42.666667-42.666667-42.666667l-42.666667 0L853.333333 341.33333300000004c0 23.466667-19.2 42.666667-42.666667 42.666667L213.333333 384c-23.466667 0-42.666667-19.2-42.666667-42.666667l0-384L128-42.66666699999996c-23.466667 0-42.666667 19.2-42.666667 42.666667L85.333333 768c0 23.466667 19.2 42.666667 42.666667 42.666667l128 0 0-256c0-23.466667 19.2-42.666667 42.666667-42.666667l426.666667 0c23.466667 0 42.666667 19.2 42.666667 42.666667L768 810.666667l21.333333 0 149.333333-149.333333L938.666667 0zM597.333333 597.333333l85.333333 0L682.666667 768l-85.333333 0L597.333333 597.333333z"  horiz-adv-x="1024" />

    
    <glyph glyph-name="guanbi" unicode="&#59027;" d="M512.282433-61.937398c-247.529583 0-448.190719 200.661136-448.190719 448.185602 0 191.062524 119.757524 353.747743 288.115953 418.226267l0-69.339228c-132.148739-60.736293-224.088708-193.907315-224.088708-348.887039 0-212.150818 172.011632-384.16245 384.163473-384.16245 212.152864 0 384.158357 172.010609 384.158357 384.16245 0 154.979724-91.944062 288.150746-224.093824 348.917738l0 69.308529c168.359452-64.478524 288.115953-227.16886 288.115953-418.226267C960.468035 138.723737 759.807922-61.937398 512.282433-61.937398L512.282433-61.937398 512.282433-61.937398zM480.268298 834.438922l64.022129 0 0-449.339892-64.022129 0L480.268298 834.438922 480.268298 834.438922 480.268298 834.438922zM480.268298 834.438922"  horiz-adv-x="1024" />

    
    <glyph glyph-name="touxiang" unicode="&#58910;" d="M512.277316 833.415616c-247.520373 0-448.185602-200.661136-448.185602-448.186625 0-247.520373 200.665229-448.185602 448.185602-448.185602 247.521396 0 448.185602 200.665229 448.185602 448.185602C960.462918 632.75448 759.798712 833.415616 512.277316 833.415616L512.277316 833.415616zM512.277316-34.466744c-230.831272 0-419.695734 188.864462-419.695734 419.695734 0 230.836389 188.864462 419.700851 419.695734 419.700851 230.836389 0 419.696758-188.864462 419.696758-419.700851C931.974074 154.397718 743.109612-34.466744 512.277316-34.466744L512.277316-34.466744zM512.277316-34.466744M766.376525 135.334547c-0.060375 0.150426-0.12075 0.294712-0.179079 0.444115-0.047072 0.11154-0.094144 0.226151-0.141216 0.338714-30.740118 75.80243-94.447069 134.707005-173.33886 158.928662 69.52854 30.869055 118.031207 100.504018 118.031207 181.482331 0 109.614513-88.856747 198.47126-198.47126 198.47126-109.61349 0-198.47126-88.856747-198.47126-198.47126 0-80.978313 48.498574-150.618393 118.031207-181.482331-78.890768-24.220634-142.598742-83.126232-173.34193-158.932756-0.047072-0.107447-0.090051-0.217964-0.132006-0.329505-0.060375-0.150426-0.124843-0.298805-0.188288-0.449231l0.020466-0.00921c-0.581238-1.582031-0.913812-3.28072-0.913812-5.064342 0-8.127098 6.585999-14.713097 14.713097-14.713097 6.509251 0 12.022825 4.229325 13.960966 10.088776 39.216163 83.070974 128.6081 152.107303 226.323609 152.107303 97.535407 0 186.854689-68.792782 226.178299-151.657049 1.799996-6.090718 7.429203-10.539031 14.105253-10.539031 8.127098 0 14.71412 6.585999 14.71412 14.713097 0 1.783623-0.333598 3.482311-0.915859 5.064342L766.376525 135.334547 766.376525 135.334547zM342.861812 476.52837c0 93.566002 75.849502 169.416528 169.415504 169.416528s169.416528-75.850525 169.416528-169.416528c0-93.566002-75.850525-169.415504-169.416528-169.415504S342.861812 382.962368 342.861812 476.52837L342.861812 476.52837zM342.861812 476.52837"  horiz-adv-x="1024" />

    
    <glyph glyph-name="liebiao" unicode="&#58926;" d="M475.09702 482.212836c0-40.939411-33.497928-74.437339-74.437339-74.437339L136.096143 407.775496c-40.940434 0-74.437339 33.497928-74.437339 74.437339L61.658803 758.039905c0 40.939411 33.495882 74.437339 74.437339 74.437339l264.565585 0c40.939411 0 74.437339-33.496905 74.437339-74.437339L475.09702 482.212836 475.09702 482.212836zM475.09702 9.947815c0-40.940434-33.497928-74.435293-74.437339-74.435293L136.096143-64.487477c-40.940434 0-74.437339 33.494858-74.437339 74.435293l0 275.821953c0 40.940434 33.495882 74.435293 74.437339 74.435293l264.565585 0c40.939411 0 74.437339-33.495882 74.437339-74.435293L475.09702 9.947815 475.09702 9.947815zM958.619432 482.212836c0-40.939411-33.495882-74.437339-74.437339-74.437339L619.603205 407.775496c-40.942481 0-74.436316 33.497928-74.436316 74.437339L545.166889 758.039905c0 40.939411 33.495882 74.437339 74.436316 74.437339l264.580934 0c40.940434 0 74.436316-33.496905 74.436316-74.437339L958.619432 482.212836zM958.623525 9.947815c0-40.940434-33.497928-74.435293-74.437339-74.435293L619.604228-64.487477c-40.941458 0-74.436316 33.494858-74.436316 74.435293l0 275.821953c0 40.940434 33.495882 74.435293 74.436316 74.435293l264.581957 0c40.940434 0 74.437339-33.495882 74.437339-74.435293L958.623525 9.947815z"  horiz-adv-x="1024" />

    
    <glyph glyph-name="multichecked" unicode="&#58967;" d="M865.132544 831.660032 156.879872 831.660032c-51.300352 0-92.886016-41.586688-92.886016-92.884992l0-708.252672c0-51.299328 41.585664-92.886016 92.886016-92.886016l708.252672 0c51.300352 0 92.886016 41.586688 92.886016 92.886016L958.01856 738.77504C958.01856 790.073344 916.432896 831.660032 865.132544 831.660032zM752.128 505.0368 449.774592 202.684416c-5.9648-5.9648-16.311296-5.285888-23.113728 1.51552 0 0-20.272128 20.272128-20.274176 20.274176l-135.46496 135.46496c-6.801408 6.801408-6.801408 17.828864 0 24.630272l36.944896 36.94592c6.801408 6.802432 17.828864 6.802432 24.630272 0l106.479616-106.48064 251.57632 251.577344c5.963776 5.963776 16.31232 5.284864 23.112704-1.516544l36.944896-36.943872C757.413888 521.348096 758.091776 511.0016 752.128 505.0368z"  horiz-adv-x="1024" />

    
    <glyph glyph-name="fangmimapojie" unicode="&#59032;" d="M512 832c243.2 0 448-198.4 448-448s-198.4-448-448-448-448 198.4-448 448 204.8 448 448 448M512 896c-281.6 0-512-230.4-512-512s230.4-512 512-512 512 230.4 512 512-230.4 512-512 512v0zM505.6 377.6h6.4c12.8 0 19.2-6.4 19.2-19.2v-89.6c0-12.8-6.4-19.2-19.2-19.2l-6.4 0c-12.8 0-19.2 6.4-19.2 19.2l-0 89.6c0 6.4 6.4 19.2 19.2 19.2v0 0zM710.4 441.6v-230.4c0-12.8-12.8-25.6-25.6-25.6h-352c-12.8 0-25.6 12.8-25.6 25.6v230.4h403.2M755.2 480h-486.4v-268.8c0-32 25.6-64 64-64h358.4c32 0 64 25.6 64 64v268.8zM704 480h-38.4v38.4c0 89.6-70.4 153.6-153.6 153.6-83.2 0-153.6-70.4-153.6-153.6v-38.4h-38.4v38.4c0 102.4 89.6 192 192 192s192-83.2 192-192v-38.4z"  horiz-adv-x="1024" />

    
    <glyph glyph-name="fuwu" unicode="&#59102;" d="M723.657073 828.626543c-50.343595 0-97.884354-10.369162-141.303236-30.818913-25.875321-12.189623-49.853431-27.693736-71.502497-46.217624-22.167882 18.517749-46.574758 34.018791-72.780607 46.204321-43.998073 20.459984-91.837638 30.832216-142.185326 30.832216-42.742477 0-82.598206-9.570983-118.464065-28.449959-33.001625-17.370623-61.959144-42.22059-86.066191-73.859171-43.890626-57.600883-69.062935-135.632073-69.062935-214.084866 0-210.703863 154.975631-402.1358 460.624912-568.974619l28.659737-15.643282 28.66076 15.643282c306.208007 167.159114 461.46914 359.082238 461.46914 570.434877C1001.707786 668.499589 897.703037 828.626543 723.657073 828.626543zM289.226752 344.421586c-127.268592 67.720358-122.737392 205.263967-122.574686 211.008808l49.544393-3.235694c-0.079818-3.803629 1.064238-112.952538 82.538855-156.319232L289.226752 344.421586z"  horiz-adv-x="1024" />

    
    <glyph glyph-name="refrash" unicode="&#58936;" d="M512 756.053v139.947l-192.853-186.027 192.853-186.027v139.947c158.72 0 288.427-126.293 288.427-279.893 0-46.080-13.653-93.867-34.133-129.707l71.68-69.973c34.133 59.733 58.027 126.293 58.027 199.68-0 204.8-172.373 372.053-384 372.053zM512 104.107c-158.72 0-288.427 126.293-288.427 279.893 0 46.080 13.653 93.867 34.133 129.707l-71.68 69.973c-34.133-59.733-58.027-124.587-58.027-199.68 0-204.8 172.373-372.053 384-372.053v-139.947l192.853 186.027-192.853 186.027v-139.947z"  horiz-adv-x="1024" />

    
    <glyph glyph-name="dsjiantous" unicode="&#58942;" d="M514.204 799.675c-0.746 0.054-1.493 0.095-2.242 0.092-0.569 0.001-1.136-0.038-1.704-0.071-0.28-0.017-0.561-0.019-0.841-0.046-6.513-0.569-12.867-3.349-17.818-8.367l-390.45-396.844c-11.072-11.215-10.954-29.293 0.26-40.361l4.884-4.823c11.22-11.074 29.293-10.956 40.366 0.26l365.339 371.328 365.336-371.325c11.078-11.219 29.152-11.337 40.371-0.264l4.88 4.823c11.221 11.068 11.333 29.146 0.26 40.366l-390.45 396.845c-4.97 5.036-11.35 7.815-17.888 8.369-0.1 0.010-0.204 0.009-0.305 0.017zM514.495 426.866c-0.067 0.006-0.134 0.005-0.201 0.011-0.781 0.060-1.563 0.1-2.345 0.097-0.532 0.001-1.063-0.037-1.595-0.065-0.316-0.019-0.633-0.021-0.95-0.051-6.508-0.572-12.855-3.35-17.804-8.361l-390.45-396.846c-11.072-11.219-10.954-29.298 0.26-40.366l4.884-4.823c11.22-11.074 29.293-10.956 40.366 0.264l365.339 371.325 365.336-371.327c11.078-11.219 29.152-11.337 40.371-0.264l4.88 4.823c11.221 11.073 11.333 29.148 0.26 40.366l-390.45 396.845c-4.973 5.040-11.36 7.82-17.903 8.372z"  horiz-adv-x="1024" />

    
    <glyph glyph-name="dxjiantous" unicode="&#58943;" d="M514.204-31.675c-0.746-0.054-1.493-0.095-2.242-0.092-0.569-0.001-1.136 0.038-1.704 0.071-0.28 0.017-0.561 0.019-0.841 0.046-6.513 0.569-12.867 3.349-17.818 8.367l-390.45 396.844c-11.072 11.215-10.954 29.293 0.26 40.361l4.884 4.823c11.22 11.074 29.293 10.956 40.366-0.26l365.34-371.328 365.335 371.324c11.078 11.219 29.152 11.337 40.371 0.264l4.88-4.823c11.221-11.068 11.333-29.146 0.26-40.366l-390.45-396.845c-4.97-5.036-11.35-7.815-17.888-8.369-0.101-0.009-0.204-0.008-0.305-0.016zM514.495 341.133c-0.067-0.006-0.134-0.005-0.201-0.011-0.781-0.060-1.563-0.1-2.345-0.097-0.532-0.001-1.063 0.037-1.595 0.065-0.316 0.019-0.633 0.021-0.95 0.051-6.508 0.572-12.855 3.35-17.804 8.361l-390.449 396.847c-11.072 11.219-10.954 29.298 0.26 40.366l4.884 4.823c11.22 11.074 29.293 10.956 40.366-0.264l365.34-371.324 365.334 371.325c11.078 11.219 29.152 11.337 40.371 0.264l4.88-4.823c11.221-11.073 11.333-29.148 0.26-40.366l-390.45-396.846c-4.973-5.040-11.36-7.819-17.903-8.372z"  horiz-adv-x="1024" />

    
    <glyph glyph-name="jiantouleft" unicode="&#59021;" d="M579.851-96l47.967 47.967-431.708 431.699 431.708 431.712-47.967 47.967-479.676-479.679z"  horiz-adv-x="1024" />

    
    <glyph glyph-name="yonghu2" unicode="&#58984;" d="M939.94782 1.133841c-1.35181-5.207268-3.639488-10.45453-6.599072-15.453827-40.906248-72.765767-214.601822-113.680014-422.652564-113.680014-208.026746 0-381.730319 40.914246-422.652564 113.680014-2.959584 4.999297-5.223265 10.23856-6.591073 15.453827l42.73799 243.733725c0 94.354731 99.354028 170.751988 222.5767 172.575732 20.229155-52.296646 85.947914-90.715243 163.920949-90.715243 77.981034 0 143.707791 38.426596 163.928947 90.715243 123.230671-1.823744 222.584699-78.221 222.584699-172.575732L939.94782 1.133841zM738.056211 670.031777c0-61.159399-24.556547-128.445937-64.56692-181.214517-22.0449-29.539846-49.105095-54.552329-79.35684-71.149995-25.892359-14.325985-53.872424-22.732803-83.436267-22.732803-29.547845 0-57.519911 8.406818-83.436267 22.732803-30.235748 16.597666-57.295943 41.610149-79.348842 71.149995-40.002375 52.768579-64.56692 120.055117-64.56692 181.214517 0 124.358512 101.873674 225.080348 227.352029 225.080348C636.182537 895.112125 738.056211 794.38229 738.056211 670.031777z"  horiz-adv-x="1024" />

    
    <glyph glyph-name="29dianpuchengchang" unicode="&#58972;" d="M177.421852 379.402285c5.238304 0 10.475586 1.998517 14.471596 5.994528l231.958956 231.957933 159.478178-159.479201c0.01535-0.01535 0.031722-0.026606 0.046049-0.041956 0.01535-0.01535 0.027629-0.031722 0.042979-0.046049 0.24764-0.24457 0.5137-0.458441 0.77055-0.688685 0.246617-0.221034 0.48607-0.455371 0.740874-0.662079 0.276293-0.224104 0.566912-0.418532 0.851391-0.626263 0.267083-0.194428 0.527003-0.402159 0.801249-0.582261 0.299829-0.196475 0.611937-0.363274 0.918929-0.543376 0.273223-0.159636 0.539282-0.333598 0.818645-0.478907 0.329505-0.172939 0.670266-0.314155 1.007957-0.467651 0.268106-0.121773 0.530073-0.258896 0.801249-0.36839 0.36839-0.148379 0.744967-0.265036 1.119497-0.391926 0.249687-0.083911 0.494257-0.184195 0.74599-0.258896 0.418532-0.12382 0.843204-0.212848 1.267876-0.309038 0.214894-0.049119 0.426719-0.113587 0.642636-0.155543 0.477884-0.092098 0.960885-0.150426 1.443885-0.208754 0.165776-0.020466 0.330528-0.055259 0.497327-0.071631 0.649799-0.062422 1.302669-0.093121 1.954515-0.093121 0 0 0 0 0 0 0.657986 0 1.314948 0.031722 1.970888 0.095167 0.170892 0.016373 0.339738 0.053212 0.509606 0.073678 0.483001 0.058328 0.967024 0.11768 1.445932 0.210801 0.213871 0.041956 0.422625 0.106424 0.63445 0.154519 0.431835 0.098237 0.864694 0.191358 1.291412 0.318248 0.232291 0.069585 0.458441 0.163729 0.688685 0.240477 0.399089 0.134053 0.800225 0.260943 1.192152 0.420579 0.248663 0.101307 0.488117 0.229221 0.733711 0.340761 0.364297 0.165776 0.730641 0.321318 1.086751 0.508583 0.257873 0.1361 0.503467 0.298805 0.7552 0.446162 0.331551 0.194428 0.668219 0.376577 0.991584 0.591471 0.254803 0.168846 0.49528 0.36532 0.743944 0.546446 0.306992 0.224104 0.6191 0.436952 0.914836 0.679475 0.240477 0.197498 0.464581 0.421602 0.697895 0.63138 0.272199 0.24457 0.552585 0.474814 0.814552 0.73678 0.01535 0.01535 0.028653 0.033769 0.044002 0.049119 0.014326 0.014326 0.029676 0.025583 0.044002 0.039909l266.774903 270.057669L879.136681 523.083685c0-11.30344 9.162684-20.466124 20.466124-20.466124s20.466124 9.162684 20.466124 20.466124L920.068929 777.862369c0 0.020466-0.00307 0.039909-0.00307 0.060375-0.002047 0.607844-0.035816 1.215688-0.092098 1.821485-0.026606 0.289596-0.071631 0.573051-0.109494 0.858554-0.059352 0.440022-0.113587 0.881067-0.200568 1.318018-0.072655 0.360204-0.174985 0.708128-0.26606 1.061169-0.075725 0.293689-0.137123 0.590448-0.226151 0.881067-0.103354 0.337691-0.233314 0.662079-0.354064 0.992607-0.10847 0.298805-0.204661 0.601704-0.328481 0.896416-0.12382 0.295735-0.272199 0.578168-0.409322 0.867764-0.150426 0.316202-0.288572 0.636496-0.456395 0.946558-0.143263 0.26606-0.310062 0.51677-0.464581 0.774643-0.188288 0.315178-0.36532 0.63445-0.571005 0.940418-0.240477 0.357134-0.50756 0.692778-0.769526 1.033539-0.192382 0.25071-0.38067 0.502443-0.586354 0.744967-0.38374 0.454348-0.781806 0.896416-1.203408 1.315972-0.01535 0.01535-0.027629 0.031722-0.042979 0.046049-0.155543 0.153496-0.324388 0.284479-0.484024 0.431835-0.321318 0.297782-0.639566 0.597611-0.979304 0.874927-0.245593 0.200568-0.503467 0.3776-0.756223 0.565888-0.283456 0.209778-0.560772 0.425695-0.855484 0.621147-0.286526 0.190335-0.582261 0.358157-0.87595 0.532119-0.279363 0.166799-0.555655 0.338714-0.843204 0.491187-0.301875 0.160659-0.610914 0.298805-0.918929 0.442068-0.297782 0.140193-0.592494 0.284479-0.898463 0.410346-0.304945 0.124843-0.615007 0.228197-0.924045 0.338714-0.320295 0.113587-0.638543 0.233314-0.966001 0.331551-0.313132 0.094144-0.63138 0.164752-0.947582 0.243547-0.330528 0.081864-0.657986 0.170892-0.99363 0.236384-0.352017 0.068562-0.706081 0.11154-1.060145 0.161682-0.305969 0.042979-0.607844 0.097214-0.916882 0.12689-0.454348 0.044002-0.909719 0.056282-1.366114 0.068562-0.199545 0.00614-0.394996 0.029676-0.596588 0.029676L702.612269 798.328493c-11.30344 0-20.466124-9.162684-20.466124-20.466124s9.162684-20.466124 20.466124-20.466124l148.005892 0L597.714174 501.380384l-159.390173 159.390173c-7.993045 7.993045-20.951171 7.993045-28.943193 0L162.950256 414.340005c-7.993045-7.993045-7.993045-20.951171 0-28.943193C166.946266 381.400802 172.183548 379.402285 177.421852 379.402285zM958.783673 16.731312l-84.550675 0L874.232998 399.868409c0 11.30344-9.162684 20.466124-20.466124 20.466124s-20.466124-9.162684-20.466124-20.466124L833.30075 16.731312l-254.260891 0L579.039859 317.917956c0 11.30344-9.162684 20.466124-20.466124 20.466124s-20.466124-9.162684-20.466124-20.466124L538.107611 16.731312 289.98758 16.731312 289.98758 231.491561c0 11.30344-9.162684 20.466124-20.466124 20.466124s-20.466124-9.162684-20.466124-20.466124L249.055332 16.731312l-63.168692 0c-44.564985 0-80.821747 36.256762-80.821747 80.820724L105.064894 784.795269c0 11.30344-9.162684 20.466124-20.466124 20.466124s-20.466124-9.162684-20.466124-20.466124L64.132646 97.552036c0-67.135026 54.618968-121.752971 121.753995-121.752971l772.897032 0c11.30344 0 20.466124 9.162684 20.466124 20.466124S970.087113 16.731312 958.783673 16.731312z"  horiz-adv-x="1024" />

    
    <glyph glyph-name="jiankong1" unicode="&#59008;" d="M841.4 622.4 180.6 622.4c-13.3 0-24-10.7-24-24l0-432.3c0-13.3 10.7-24 24-24l100.8 0c7.3 0 14.1 3.3 18.7 8.9l134.3 166.5 61.3-50.6c9.8-8.1 24.2-7.1 32.9 2.2l119.2 128.6c11.6-7.1 25.2-11.1 39.8-11.1 42.3 0 76.8 34.4 76.8 76.8s-34.4 76.8-76.8 76.8c-42.3 0-76.8-34.4-76.8-76.8 0-10.2 2-20 5.7-28.9L508.8 318.4l-62.5 51.6c-4.9 4.1-11.3 6-17.7 5.4-6.4-0.6-12.2-3.8-16.3-8.8L270 190.1l-65.4 0L204.6 574.4l612.7 0 0-384.3-331 0c-13.3 0-24-10.7-24-24l0-117.7-141 0c-13.3 0-24-10.7-24-24s10.7-24 24-24l165 0 71.5 0 86.2 0c13.3 0 24 10.7 24 24s-10.7 24-24 24l-86.2 0-47.5 0 0 93.7 331 0c13.3 0 24 10.7 24 24L865.3 598.4C865.4 611.7 854.6 622.4 841.4 622.4zM687.6 492.3c15.9 0 28.8-12.9 28.8-28.8s-12.9-28.8-28.8-28.8c-15.9 0-28.8 12.9-28.8 28.8S671.7 492.3 687.6 492.3z"  horiz-adv-x="1024" />

    
    <glyph glyph-name="yulan" unicode="&#59009;" d="M633.011306-81.86444 633.011306-81.399011 139.657519-81.399011c-24.667689 0-47.939094 9.77399-65.625362 27.460258C56.345889-36.252486 46.571899-12.981081 46.571899 11.686609L46.571899 756.37157c0 24.667689 9.77399 47.939094 27.460258 65.625362C91.718425 839.6832 114.98983 849.45719 139.657519 849.45719l605.056531 0c24.667689 0 47.939094-9.77399 65.625362-27.460258C828.02568 804.310664 837.79967 781.039259 837.79967 756.37157l0-209.209931c0 0 0 0 0-0.232714 0-12.799273 10.472132-23.271405 23.271405-23.271405 12.799273 0 23.271405 10.472132 23.271405 23.271405l0 0L884.342481 756.37157c0 76.795637-62.832794 139.62843-139.62843 139.62843L139.657519 896C62.861883 896 0.029089 833.167206 0.029089 756.37157l0-744.684961c0-76.795637 62.832794-139.62843 139.62843-139.62843l493.353787 0 0 0.465428c10.704846 2.094426 18.617124 11.635703 18.617124 22.805977S643.716152-83.958866 633.011306-81.86444zM721.442645 703.778194 721.442645 703.778194c0 12.799273-10.472132 23.271405-23.271405 23.271405L186.20033 727.049599c-12.799273 0-23.271405-10.472132-23.271405-23.271405l0 0c0-12.799273 10.472132-23.271405 23.271405-23.271405l511.970911 0C710.970513 680.506789 721.442645 690.978922 721.442645 703.778194zM186.20033 38.681439l139.62843 0c12.799273 0 23.271405 10.472132 23.271405 23.271405s-10.472132 23.271405-23.271405 23.271405L186.20033 85.224249c-12.799273 0-23.271405-10.472132-23.271405-23.271405S173.401057 38.681439 186.20033 38.681439zM186.20033 359.594114l93.08562 0c12.799273 0 23.271405 10.472132 23.271405 23.271405s-10.472132 23.271405-23.271405 23.271405L186.20033 406.136924c-12.799273 0-23.271405-10.472132-23.271405-23.271405S173.401057 359.594114 186.20033 359.594114zM1017.222203-88.147719l-172.208397 172.208397c39.09596 46.54281 62.60008 106.583035 62.60008 171.975683 0 147.773422-119.847736 267.621158-267.621158 267.621158s-267.621158-119.847736-267.621158-267.621158 119.847736-267.621158 267.621158-267.621158c65.625362 0 125.432873 23.504119 171.975683 62.60008l172.208397-172.208397c9.075848-9.075848 23.969547-9.075848 32.812681 0S1026.298051-97.223567 1017.222203-88.147719zM639.992728 34.958014c-121.942162 0-221.078348 99.136185-221.078348 221.078348s99.136185 221.078348 221.078348 221.078348 221.078348-99.136185 221.078348-221.078348S761.93489 34.958014 639.992728 34.958014z"  horiz-adv-x="1024" />

    
    <glyph glyph-name="sjiantoul" unicode="&#58909;" d="M153.087 354.318l350.588-344.38c14.827-14.495 38.802-14.495 53.633 0 14.831 14.564 14.831 38.225 0 52.788l-326.247 320.346 326.248 320.472c14.831 14.564 14.831 38.107 0 52.667-14.831 14.564-38.807 14.564-53.633 0l-350.591-344.255c-8.159-7.95-11.431-18.504-10.754-28.884-0.678-10.307 2.593-20.808 10.754-28.753v0zM417.049 383.072c-0.746-10.312 2.589-20.808 10.626-28.753l350.594-344.38c14.827-14.495 38.802-14.495 53.756 0 14.828 14.564 14.703 38.225 0 52.788l-326.374 320.345 326.374 320.472c14.703 14.564 14.828 38.107 0 52.667-14.955 14.564-38.93 14.564-53.756 0l-350.593-344.255c-8.037-7.949-11.372-18.504-10.626-28.884v0zM417.049 383.072z"  horiz-adv-x="1024" />

    
    <glyph glyph-name="dianyuan" unicode="&#58892;" d="M561.312102 827.808922l-98.624205 0 0-493.121024 98.624205 0L561.312102 827.808922zM799.735283 721.048409l-69.77618-69.77618c77.420277-63.36619 127.225613-159.27761 127.225613-267.271206 0-190.590779-154.592914-345.184717-345.184717-345.184717S166.815283 193.409221 166.815283 384c0 107.993596 49.805336 203.905016 127.225613 267.271206l-69.77618 69.77618C129.0911 639.683287 68.191078 519.115304 68.191078 384c0-245.080811 198.72811-443.808922 443.808922-443.808922s443.808922 198.72811 443.808922 443.808922C955.808922 519.115304 894.907876 639.683287 799.735283 721.048409z"  horiz-adv-x="1024" />

    
    <glyph glyph-name="dangan" unicode="&#58979;" d="M409.824411 430.597271l388.861472 0c12.620435 0 22.874987 10.242272 22.874987 22.873963 0 12.621459-10.254551 22.874987-22.874987 22.874987L409.824411 476.346221c-12.641925 0-22.874987-10.254551-22.874987-22.874987C386.949424 440.840566 397.18044 430.597271 409.824411 430.597271zM958.716646 750.56977c0 37.84084-30.782074 68.622914-68.62496 68.622914L318.237483 819.192683c-37.84084 0-69.963445-31.943526-69.963445-69.794599l0.187265-18.98847-0.187265-667.24169c0-37.829584-30.78105-68.610634-68.622914-68.610634-37.84084 0-68.622914 30.78105-68.622914 68.610634 0 0.381693-0.011256 0.76134-0.028653 1.13894l1.369184 0.033769L112.368742 476.078115c0 12.621459 8.912997 21.713534 21.534456 21.713534l69.963445 0 0 45.74895-69.963445 0c-37.84084 0-68.622914-30.794353-68.622914-68.623937l0-411.747715c0-63.060221 51.310619-114.360608 114.371864-114.360608s114.371864 51.300386 114.371864 114.360608c0 0.381693-0.010233 0.76134-0.027629 1.13894l1.369184 0.033769L295.365566 750.56977c0 12.610202 8.911974 21.712511 21.534456 21.712511l571.857273 0c12.597923 0 22.873963-10.276041 22.873963-22.884197l0-686.23016c0-37.829584-29.441543-67.449181-67.282383-67.449181l-503.145331 0.270153c-12.642948 0-22.874987-10.254551-22.874987-22.874987 0-12.634762 10.231015-22.874987 22.874987-22.874987l501.803777-1.428535c63.061244 0 114.371864 51.300386 114.371864 114.360608 0 0.381693-0.010233 0.76134-0.027629 1.13894l1.370207 0.033769L958.721763 750.56977 958.716646 750.56977zM409.824411 590.718085l205.868741 0c12.621459 0 22.874987 10.241248 22.874987 22.874987 0 12.632715-10.254551 22.874987-22.874987 22.874987L409.824411 636.468059c-12.641925 0-22.874987-10.242272-22.874987-22.874987C386.949424 600.959334 397.18044 590.718085 409.824411 590.718085zM409.824411 110.347456l388.861472 0c12.620435 0 22.874987 10.252505 22.874987 22.88522 0 12.631692-10.254551 22.874987-22.874987 22.874987L409.824411 156.107663c-12.641925 0-22.874987-10.243295-22.874987-22.874987C386.949424 120.598938 397.18044 110.347456 409.824411 110.347456zM409.824411 270.478504l388.861472 0c12.620435 0 22.874987 10.244318 22.874987 22.874987s-10.254551 22.873963-22.874987 22.873963L409.824411 316.227454c-12.641925 0-22.874987-10.242272-22.874987-22.873963C386.949424 280.720775 397.18044 270.478504 409.824411 270.478504z"  horiz-adv-x="1024" />

    
    <glyph glyph-name="bianji1" unicode="&#59040;" d="M930.5088 716.3904 786.2272 860.0576C768.1024 878.6944 738.304 878.3872 719.9744 860.16L94.0032 233.7792C93.3888 233.2672 92.0576 228.7616 91.8528 227.5328L29.184-3.1744C25.4976-16.4864 29.2864-30.9248 39.2192-41.0624 46.6944-48.3328 56.4224-52.3264 66.8672-52.4288 70.3488-52.4288 73.8304-51.9168 77.312-51.2L305.9712 11.4688C306.2784 11.4688 311.6032 12.5952 313.6512 14.336L939.6224 640.8192C957.8496 659.1488 948.8384 697.856 930.5088 716.3904L930.5088 716.3904 930.5088 716.3904ZM89.1904 10.5472 136.9088 191.488 273.408 54.5792 89.1904 10.5472 89.1904 10.5472ZM185.856 240.3328 604.5696 658.2272 741.1712 521.4208 322.3552 103.424 185.856 240.3328 185.856 240.3328ZM649.6256 703.0784 748.544 801.792 885.1456 664.9856 786.1248 566.1696 649.6256 703.0784 649.6256 703.0784Z"  horiz-adv-x="1024" />

    
    <glyph glyph-name="jiayou" unicode="&#58946;" d="M808.369231 686.552615l-27.844923-27.844923L905.846154 533.385846l0-326.380308 0 0c0.039385-0.118154 0-0.236308 0-0.315077l0-19.377231c0-54.390154-44.071385-98.461538-98.461538-98.461538s-98.461538 44.071385-98.461538 98.461538l0 19.298462c0.039385 0.118154 0 0.236308 0 0.393846l0 0L708.923077 777.846154c0 43.52-35.249231 78.769231-78.769231 78.769231L157.538462 856.615385C114.018462 856.615385 78.769231 821.366154 78.769231 777.846154l0-472.615385 0-39.384615 0-315.076923L0-49.230769l0-39.384615 78.769231 0 39.384615 0 551.384615 0 39.384615 0 78.769231 0 0 39.384615-78.769231 0 0 140.288c25.009231-25.6 59.825231-41.590154 98.461538-41.590154 76.051692 0 137.688615 61.558154 137.806769 137.609846L945.230769 187.076923l0 306.924308 58.092308-58.092308 27.844923 27.844923L808.369231 686.552615zM669.538462-49.230769 118.153846-49.230769l0 315.076923 551.384615 0L669.538462-49.230769zM669.538462 305.230769 118.153846 305.230769 118.153846 738.461538c0 43.480615 35.288615 78.769231 78.769231 78.769231l393.846154 0c43.52 0 78.769231-35.288615 78.769231-78.769231L669.538462 305.230769zM551.384615 699.076923 236.307692 699.076923C214.567385 699.076923 196.923077 681.432615 196.923077 659.692308l0-196.923077c0-21.740308 17.644308-39.384615 39.384615-39.384615l315.076923 0c21.740308 0 39.384615 17.644308 39.384615 39.384615L590.769231 659.692308C590.769231 681.432615 573.124923 699.076923 551.384615 699.076923zM551.384615 502.153846c0-21.740308-17.644308-39.384615-39.384615-39.384615L275.692308 462.769231c-21.740308 0-39.384615 17.644308-39.384615 39.384615L236.307692 620.307692c0 21.740308 17.644308 39.384615 39.384615 39.384615l236.307692 0c21.740308 0 39.384615-17.644308 39.384615-39.384615L551.384615 502.153846z"  horiz-adv-x="1064" />

    
    <glyph glyph-name="shangjiantou" unicode="&#58888;" d="M494.479 503.558c-0.167-0.167-0.308-0.349-0.469-0.52L290.405 299.432c-9.668-9.662-9.668-25.319 0-34.984 9.662-9.669 25.319-9.669 34.984 0l186.611 186.606 186.606-186.604c9.667-9.669 25.325-9.669 34.987 0 4.833 4.831 7.252 11.159 7.252 17.492 0 6.328-2.419 12.659-7.252 17.491L529.978 503.049c-0.158 0.167-0.297 0.346-0.461 0.51-4.84 4.839-11.182 7.254-17.519 7.248C505.66 510.813 499.318 508.397 494.479 503.558z"  horiz-adv-x="1024" />

    
    <glyph glyph-name="tubiaolunkuohua17" unicode="&#58999;" d="M842.048 767.712 181.248 767.712c-29.376 0-53.28-24.224-53.28-53.952l0-660.192c0-29.376 23.904-53.312 53.28-53.312l660.8 0c29.76 0 53.984 23.936 53.984 53.312L896.032 713.792C896.032 743.488 871.808 767.712 842.048 767.712zM632.288 160l160 0c8.832 0 16-7.168 16-16s-7.168-16-16-16l-160 0c-8.832 0-16 7.168-16 16S623.424 160 632.288 160zM616.288 240c0 8.832 7.168 16 16 16l160 0c8.832 0 16-7.168 16-16s-7.168-16-16-16l-160 0C623.424 224 616.288 231.168 616.288 240zM865.28 713.792l0-329.824L544 383.968 544 736.96l298.048 0C854.656 736.96 865.28 726.336 865.28 713.792zM181.248 736.96 512 736.96l0-352.992L158.72 383.968 158.72 713.792C158.72 726.56 168.8 736.96 181.248 736.96zM158.72 53.6l0 298.432L512 352.032 512 31.04 181.248 31.04C168.608 31.04 158.72 40.928 158.72 53.6zM239.616 544 320 544l0-80.384c0-8.832 7.168-16 16-16s16 7.168 16 16L352 544l80.384 0c8.832 0 16 7.168 16 16s-7.168 16-16 16L352 576 352 656.384c0 8.832-7.168 16-16 16S320 665.216 320 656.384L320 576 239.616 576c-8.832 0-16-7.168-16-16S230.784 544 239.616 544zM624 544.256l160 0c8.672 0 15.744 7.072 15.744 15.744s-7.072 15.744-15.744 15.744l-160 0c-8.672 0-15.744-7.072-15.744-15.744S615.328 544.256 624 544.256zM358.624 208l56.832 56.832c6.24 6.24 6.24 16.384 0 22.624s-16.384 6.24-22.624 0L336 230.624l-56.832 56.832c-6.24 6.24-16.384 6.24-22.624 0s-6.24-16.384 0-22.624L313.376 208l-56.832-56.8c-6.24-6.24-6.24-16.384 0-22.624 3.136-3.136 7.232-4.672 11.328-4.672s8.192 1.568 11.328 4.672l56.832 56.832 56.832-56.832c3.136-3.136 7.232-4.672 11.328-4.672s8.192 1.568 11.328 4.672c6.24 6.24 6.24 16.384 0 22.624L358.624 208z"  horiz-adv-x="1024" />

    
    <glyph glyph-name="xinxifuwuyewuyujingcongyerenyuanzigezhengchaxun" unicode="&#59144;" d="M677.953384 729.851339 195.412006 729.851339c-12.765645 0-20.425032-10.212516-20.425032-20.425032S182.646361 689.001274 195.412006 689.001274l482.541378 0c12.765645 0 20.425032 10.212516 20.425032 20.425032S688.1659 729.851339 677.953384 729.851339zM662.63461 576.663599c0 10.212516-10.212516 20.425032-20.425032 20.425032L187.752619 597.088631c-10.212516 0-20.425032-10.212516-20.425032-20.425032s10.212516-20.425032 20.425032-20.425032l457.010088 0C654.975223 556.238568 662.63461 563.897954 662.63461 576.663599zM187.752619 451.560279c-10.212516 0-20.425032-10.212516-20.425032-20.425032 0-10.212516 10.212516-20.425032 20.425032-20.425032l293.609833 0c10.212516 0 20.425032 10.212516 20.425032 20.425032 0 10.212516-10.212516 20.425032-20.425032 20.425032L187.752619 451.560279zM414.981099 308.585056l-229.781608 0c-10.212516 0-20.425032-10.212516-20.425032-20.425032s10.212516-20.425032 20.425032-20.425032l229.781608 0c10.212516 0 20.425032 10.212516 20.425032 20.425032S427.746743 308.585056 414.981099 308.585056zM93.286847 66.037803 93.286847 849.848401c0 2.553129 2.553129 7.659387 7.659387 7.659387l638.282245 0c2.553129 0 7.659387-2.553129 7.659387-7.659387l0-377.86309c15.318774 0 22.978161 0 40.850063 0L787.73793 849.848401c0 25.53129-20.425032 45.956321-45.956321 45.956321l-638.282245 0C72.861815 898.357851 52.436783 875.37969 52.436783 849.848401l0-786.363727c0-25.53129 20.425032-45.956321 45.956321-45.956321l306.375478 0 0 38.296934c0 0 0 2.553129 0 2.553129l-306.375478 0C95.839976 58.378416 93.286847 60.931545 93.286847 66.037803zM828.587994-125.446871l-2.553129 0c-12.765645 0-22.978161 7.659387-28.084419 17.871903L716.250319 40.506513c-5.106258 0-10.212516 0-12.765645 0l-79.146999-145.528352c-5.106258-12.765645-17.871903-17.871903-30.637547-17.871903l-2.553129 0c-12.765645 2.553129-25.53129 10.212516-30.637547 22.978161L537.53129-38.640485l-66.381354-15.318774c-12.765645-2.553129-28.084419 2.553129-35.743805 12.765645-7.659387 10.212516-10.212516 25.53129-2.553129 38.296934l91.912643 168.506513c-10.212516 22.978161-12.765645 48.50945-12.765645 74.040741 0 109.784546 89.359515 199.144061 199.144061 199.144061 53.615709 0 104.678288-20.425032 142.975223-58.721967 38.296934-38.296934 58.721967-89.359515 58.721967-140.422094 0-25.53129-5.106258-48.50945-12.765645-71.487612l91.912643-171.059642c7.659387-12.765645 5.106258-28.084419-2.553129-38.296934-7.659387-10.212516-22.978161-15.318774-35.743805-12.765645l-66.381354 15.318774L861.778671-102.46871C856.672412-115.234355 843.906767-125.446871 828.587994-125.446871L828.587994-125.446871zM739.228479 81.356577l89.359515-163.400255 33.190676 89.359515 94.465772-22.978161-97.018901 181.272158 5.106258 7.659387c10.212516 20.425032 12.765645 43.403192 15.318774 63.828225 0 43.403192-15.318774 84.253257-45.956321 114.890804-30.637547 30.637547-71.487612 48.50945-114.890804 48.50945-89.359515 0-160.847126-71.487612-163.400255-160.847126 0-22.978161 5.106258-45.956321 15.318774-66.381354l5.106258-7.659387-99.57203-178.719029 94.465772 20.425032 30.637547-89.359515 89.359515 163.400255 17.871903-2.553129c2.553129 0 7.659387 0 10.212516 0 2.553129 0 5.106258 0 7.659387 0L739.228479 81.356577zM711.144061 50.719029 711.144061 50.719029c-53.615709 0-102.125159 20.425032-137.868965 58.721967-35.743805 35.743805-56.168838 86.806386-56.168838 137.868965 0 107.231417 86.806386 194.037803 194.037803 194.037803 53.615709 0 102.125159-20.425032 137.868965-58.721967 35.743805-35.743805 56.168838-86.806386 56.168838-137.868965C905.181863 137.525415 818.375478 50.719029 711.144061 50.719029zM711.144061 400.497699c-86.806386 0-155.740868-68.934483-155.740868-155.740868 0-40.850063 15.318774-81.700128 45.956321-109.784546 30.637547-30.637547 68.934483-45.956321 109.784546-45.956321l0-20.425032 0 20.425032c86.806386 0 155.740868 68.934483 155.740868 155.740868 0 40.850063-15.318774 81.700128-45.956321 109.784546C792.844188 385.178925 754.547253 400.497699 711.144061 400.497699z"  horiz-adv-x="1024" />

    
    <glyph glyph-name="shenglue" unicode="&#58960;" d="M1100 479.33333332q-44 42-104 42t-104-42q-42-44-42-104t42-104q44-42 104-42t104 42q42 44 42 104t-42 104l0 0zM700 479.33333332q-44 42-104 42t-104-42q-42-44-42-104t42-104q44-42 104-42t104 42q42 44 42 104t-42 104l0 0zM300 479.33333332q-42 42-104 42-60 0-102-42-44-44-44-104t44-104q42-42 102-42 62 0 104 42 42 44 42 104t-42 104l0 0z"  horiz-adv-x="1200" />

    
    <glyph glyph-name="home" unicode="&#58907;" d="M978.221 376.16700000000003l-469.737 439.203-469.737-437.913c-9.189-8.567-9.702-22.975-1.114-32.155 8.579-9.173 23.004-9.692 32.187-1.105l438.629 408.894 438.649-410.139c4.401-4.112 9.987-6.144 15.563-6.144 6.07 0 12.143 2.411 16.623 7.209 8.596 9.173 8.123 23.568-1.065 32.149v0zM978.221 376.16700000000003zM834.88 367.14599999999996c-12.573 0-22.772-10.193-22.772-22.75v-348.839h-182.185v242.67h-242.91v-242.67h-182.178v348.839c0 12.557-10.189 22.75-22.771 22.75-12.59 0-22.777-10.193-22.777-22.75v-394.338h273.275v242.669h151.819v-242.669h273.268v394.338c0.001 12.557-10.201 22.75-22.768 22.75v0zM834.88 367.14599999999996zM675.472 693.232h136.635v-121.332c0-12.576 10.201-22.755 22.772-22.755 12.569 0 22.769 10.179 22.769 22.755v166.831h-182.177c-12.576 0-22.777-10.174-22.777-22.75-0.001-12.572 10.201-22.75 22.777-22.75v0zM675.472 693.232z"  horiz-adv-x="1024" />

    
    <glyph glyph-name="tianjiawenjian" unicode="&#58912;" d="M865.12 737.12 453.152 737.12c0 64.992-52.704 117.696-117.696 117.696L158.88 854.816c-64.992 0-117.696-52.704-117.696-117.696l0-706.24c0-64.992 52.704-117.696 117.696-117.696l706.24 0c64.992 0 117.696 52.704 117.696 117.696L982.816 619.424C982.848 684.416 930.144 737.12 865.12 737.12zM923.968 560.576l-4.736 0 0-58.848 4.736 0 0-470.848c0-32.48-26.368-58.848-58.848-58.848L158.88-27.968c-32.48 0-58.848 26.368-58.848 58.848L100.032 501.696l4.832 0 0 58.848L100.032 560.544 100.032 737.12c0 32.48 26.368 58.848 58.848 58.848l176.576 0c32.48 0 58.848-26.368 58.848-58.848l0-58.848 470.848 0c32.48 0 58.848-26.368 58.848-58.848L924 560.576zM537.472 562.08l-38.176 0L499.296 371.2 308.448 371.2l0-38.176 190.88 0 0-190.88 38.176 0 0 190.88 190.88 0L728.384 371.2l-190.88 0L537.504 562.08z"  horiz-adv-x="1024" />

    
    <glyph glyph-name="rightarrow" unicode="&#59031;" d="M335.598933-42.649599999999964c-9.454933 0-18.8928 3.771733-26.112 11.281067-14.421333 15.035733-14.421333 39.406933 0 54.4256l339.080533 353.4336c3.9936 4.181333 3.9936 10.820267-0.0512 15.035733L309.504 744.942933c-14.4384 15.035733-14.4384 39.406933 0 54.4256s37.7856 15.035733 52.241067 0l339.080533-353.450667c32.6656-34.1504 32.6656-89.7024 0.0512-123.8528L361.728-31.385599999999954C354.491733-38.87786700000004 345.0368-42.649599999999964 335.598933-42.649599999999964z"  horiz-adv-x="1024" />

    
    <glyph glyph-name="xuanzhong2" unicode="&#60024;" d="M966.983 651.124c0 96.156-77.949 174.115-174.115 174.115l-530.719 0c-96.156 0-174.115-77.949-174.115-174.115l0-530.719c0-96.156 77.949-174.115 174.115-174.115l530.719 0c96.156 0 174.115 77.949 174.115 174.115l0 530.719zM782.268 494.925l-274.835-278.377c-1.259-1.741-2.619-3.397-4.151-4.953-15.58-15.801-40.82-15.801-56.384 0l-140.956 142.764c-15.58 15.801-15.58 41.317 0 57.12s40.82 15.801 56.384 0l112.419-113.845 251.141 254.4c15.58 15.801 40.82 15.801 56.384 0s15.58-41.317 0-57.12z"  horiz-adv-x="1037" />

    
    <glyph glyph-name="compile" unicode="&#59290;" d="M918.013-14.109c0-25.965-21.065-47.032-47.033-47.032h-721.16c-25.965 0-47.033 21.066-47.033 47.032v752.517c0 25.965 21.066 47.032 47.033 47.032h580.064l-0 62.71h-564.386c-69.263 0-125.419-56.158-125.419-125.42v-721.16c0-69.263 56.157-125.418 125.419-125.418h689.807c69.26 0 125.418 56.156 125.418 125.418v627.096h-62.711v-642.774zM322.272 158.344l156.774 94.063 501.677 564.387-62.711 62.711-501.677-564.387-94.063-156.774z"  horiz-adv-x="1024" />

    
    <glyph glyph-name="guanyu-copy1" unicode="&#58994;" d="M514.423 864.649c-266.151 0-481.909-215.758-481.909-481.909s215.758-481.909 481.909-481.909 481.909 215.758 481.909 481.909-215.758 481.909-481.909 481.909zM514.423-47.071c-237.377 0-429.81 192.433-429.81 429.81s192.433 429.81 429.81 429.81 429.81-192.433 429.81-429.81-192.432-429.81-429.81-429.81zM514.448 607.978c-10.076-11.052-15.262-24.482-15.262-39.983 0-12.757 4.146-23.889 12.304-32.489 8.302-8.758 19.044-13.281 31.268-13.281 9.933 0 24.682 3.04 38.169 18.028 10.524 11.35 15.858 25.001 15.858 40.206 0 12.46-4.301 23.361-12.527 31.821-17.936 18.465-50.541 16.465-69.809-4.304zM551.958 287.235c-12.918-12.311-21.963-20.01-27.986-24.87 2.955 15.951 10.641 47.588 29.152 109.891 18.451 61.749 20.052 72.525 20.052 77.82 0 9.234-3.879 17.424-10.583 23.086-15.067 12.439-41.637 9.973-73.74-8.19-17.898-10.035-36.902-26.411-58.126-49.682l-11.069-12.311 36.72-28.319 9.407 9.296c10.211 9.913 17.158 16.375 21.773 20.687-28.048-92.224-41.699-149.537-41.699-175.213 0-11.634 3.383-21.302 10.211-28.628 6.891-7.508 16.544-11.453 27.618-11.453 10.822 0 23.245 4.188 38.317 12.746 13.59 7.693 34.009 24.565 62.551 51.404l11.561 11.085-33.394 32.507-10.764-9.854z"  horiz-adv-x="1024" />

    
    <glyph glyph-name="16" unicode="&#58974;" d="M739.555556 526.222222C688.867556 526.222222 643.868444 548.750222 612.608 583.822222L357.176889 413.525333C365.141333 395.776 369.777778 376.263111 369.777778 355.555556 369.777778 340.593778 366.819556 326.485333 362.552889 312.945778L630.784 171.776C661.845333 214.016 711.537778 241.777778 768 241.777778 862.264889 241.777778 938.666667 165.376 938.666667 71.111111 938.666667-23.153778 862.264889-99.555556 768-99.555556 673.735111-99.555556 597.333333-23.153778 597.333333 71.111111 597.333333 90.851556 601.344 109.511111 607.516444 127.118222L339.171556 268.373333C313.116444 235.093333 273.066667 213.333333 227.555556 213.333333 149.020444 213.333333 85.333333 277.020444 85.333333 355.555556 85.333333 434.090667 149.020444 497.777778 227.555556 497.777778 268.373333 497.777778 304.896 480.369778 330.837333 452.835556L586.268444 623.132444C575.459556 645.546667 568.888889 670.350222 568.888889 696.888889 568.888889 791.153778 645.290667 867.555556 739.555556 867.555556 833.820444 867.555556 910.222222 791.153778 910.222222 696.888889 910.222222 602.624 833.820444 526.222222 739.555556 526.222222ZM768-42.666667C830.833778-42.666667 881.777778 8.277333 881.777778 71.111111 881.777778 133.944889 830.833778 184.888889 768 184.888889 705.166222 184.888889 654.222222 133.944889 654.222222 71.111111 654.222222 8.277333 705.166222-42.666667 768-42.666667ZM227.555556 450.673778C175.018667 450.673778 132.437333 408.092444 132.437333 355.555556 132.437333 303.018667 175.018667 260.437333 227.555556 260.437333 280.092444 260.437333 322.673778 303.018667 322.673778 355.555556 322.673778 408.092444 280.092444 450.673778 227.555556 450.673778ZM739.555556 810.666667C676.721778 810.666667 625.777778 759.722667 625.777778 696.888889 625.777778 634.055111 676.721778 583.111111 739.555556 583.111111 802.389333 583.111111 853.333333 634.055111 853.333333 696.888889 853.333333 759.722667 802.389333 810.666667 739.555556 810.666667Z"  horiz-adv-x="1024" />

    
    <glyph glyph-name="shijian" unicode="&#59070;" d="M516.83-70.38099999999997c-247.374 0-447.869 200.496-447.869 447.869 0 247.335 200.496 447.833 447.869 447.833 247.335 0 447.833-200.496 447.833-447.833 0-247.374-200.496-447.869-447.833-447.869v0zM784.132 230.34799999999996l-293.245 86.269c0 0.358 0.207 0.599 0.207 0.934v314.089c0 21.671-18.455 39.223-41.202 39.223-22.771 0-41.141-17.555-41.141-39.223v-314.089c0-9.017 3.771-16.925 9.107-23.531-4.857-19.82 6.58-40.118 27.269-46.211l314.33-92.512c21.714-6.365 44.821 5.245 51.639 25.94 6.789 20.757-5.279 42.75-26.967 49.113v0z"  horiz-adv-x="1024" />

    
    <glyph glyph-name="settings" unicode="&#59130;" d="M989.184 257.024 890.88 257.024c-12.288 0-23.552-7.168-27.648-18.432 0 0 0 0 0 0-5.12-11.264-2.048-24.576 6.144-32.768l68.608-68.608c11.264-11.264 11.264-30.72 0-43.008L801.792-43.008c-6.144-6.144-13.312-9.216-21.504-9.216-8.192 0-15.36 3.072-21.504 9.216l-68.608 68.608c-6.144 6.144-13.312 9.216-21.504 9.216-4.096 0-8.192-1.024-11.264-2.048 0 0 0 0 0 0-11.264-5.12-18.432-15.36-18.432-27.648l0-97.28c0-16.384-13.312-29.696-29.696-29.696L415.744-121.856c-16.384 0-29.696 13.312-29.696 29.696L386.048 5.12c0 12.288-7.168 23.552-18.432 27.648 0 0 0 0 0 0-4.096 2.048-7.168 2.048-11.264 2.048-8.192 0-15.36-3.072-21.504-9.216l-68.608-68.608c-6.144-6.144-13.312-9.216-21.504-9.216-8.192 0-15.36 3.072-21.504 9.216L84.992 94.208c-11.264 11.264-11.264 30.72 0 43.008l68.608 68.608c8.192 8.192 11.264 21.504 6.144 32.768 0 0 0 0 0 0-5.12 11.264-15.36 18.432-27.648 18.432L34.816 257.024c-16.384 0-29.696 13.312-29.696 29.696L5.12 480.256c0 16.384 13.312 29.696 29.696 29.696L133.12 509.952c12.288 0 23.552 7.168 27.648 18.432 0 0 0 0 0 0 5.12 11.264 2.048 24.576-6.144 32.768l-68.608 68.608c-11.264 11.264-11.264 30.72 0 43.008L222.208 811.008c6.144 6.144 13.312 9.216 21.504 9.216 8.192 0 15.36-3.072 21.504-9.216l68.608-68.608c6.144-6.144 13.312-9.216 21.504-9.216 4.096 0 8.192 1.024 11.264 2.048 0 0 0 0 0 0 11.264 5.12 18.432 15.36 18.432 27.648L385.024 861.184c0 16.384 13.312 29.696 29.696 29.696l193.536 0c16.384 0 29.696-13.312 29.696-29.696L637.952 762.88c0-12.288 7.168-23.552 18.432-27.648 0 0 0 0 0 0 4.096-1.024 7.168-2.048 11.264-2.048 8.192 0 15.36 3.072 21.504 9.216l68.608 68.608c6.144 6.144 13.312 9.216 21.504 9.216 8.192 0 15.36-3.072 21.504-9.216l136.192-136.192c11.264-11.264 11.264-30.72 0-43.008l-68.608-68.608c-8.192-8.192-11.264-21.504-6.144-32.768 0 0 0 0 0 0 5.12-11.264 15.36-18.432 27.648-18.432l97.28 0c16.384 0 29.696-13.312 29.696-29.696l0-193.536C1018.88 270.336 1005.568 257.024 989.184 257.024zM955.392 447.488 890.88 447.488c-37.888 0-71.68 22.528-86.016 58.368-14.336 34.816-6.144 74.752 20.48 102.4l46.08 46.08L781.312 742.4l-45.056-46.08c-17.408-17.408-40.96-27.648-65.536-27.648-12.288 0-24.576 2.048-35.84 7.168-35.84 14.336-58.368 48.128-58.368 86.016L576.512 827.392 448.512 827.392 448.512 762.88c0-37.888-22.528-71.68-58.368-86.016-11.264-5.12-23.552-7.168-35.84-7.168-24.576 0-48.128 9.216-65.536 27.648L242.688 742.4 153.6 653.312l45.056-46.08c26.624-26.624 34.816-66.56 20.48-101.376-14.336-35.84-48.128-58.368-86.016-58.368L68.608 447.488l0-126.976L133.12 320.512c37.888 0 71.68-22.528 86.016-58.368 14.336-34.816 6.144-74.752-20.48-102.4L153.6 114.688l90.112-90.112 45.056 45.056c17.408 17.408 40.96 27.648 65.536 27.648 12.288 0 24.576-2.048 35.84-7.168 35.84-14.336 58.368-48.128 58.368-86.016l0-64.512 126.976 0L575.488 5.12c0 37.888 22.528 71.68 58.368 86.016 11.264 5.12 23.552 7.168 35.84 7.168 24.576 0 48.128-9.216 65.536-27.648l46.08-46.08 90.112 90.112-45.056 46.08c-26.624 26.624-34.816 66.56-20.48 101.376 14.336 35.84 48.128 58.368 86.016 58.368l64.512 0L956.416 447.488zM512 193.536c-105.472 0-190.464 84.992-190.464 190.464 0 105.472 84.992 190.464 190.464 190.464 105.472 0 190.464-84.992 190.464-190.464C702.464 278.528 617.472 193.536 512 193.536zM512 510.976c-69.632 0-126.976-57.344-126.976-126.976 0-69.632 57.344-126.976 126.976-126.976 69.632 0 126.976 57.344 126.976 126.976C638.976 453.632 581.632 510.976 512 510.976z"  horiz-adv-x="1024" />

    
    <glyph glyph-name="jinggao1" unicode="&#58961;" d="M510.437411 833.673489c-245.613954 0-446.568778-200.952778-446.568778-446.568778 0-245.613954 200.954825-446.566732 446.568778-446.566732s446.568778 200.952778 446.568778 446.566732C957.00619 632.720711 756.051365 833.673489 510.437411 833.673489L510.437411 833.673489zM548.47268 155.292088c0-20.343327-16.495696-36.840046-36.840046-36.840046l-1.110287 0c-20.344351 0-36.840046 16.495696-36.840046 36.840046L473.682299 449.246003c0 20.343327 16.495696 36.840046 36.840046 36.840046l1.110287 0c20.343327 0 36.840046-16.495696 36.840046-36.840046L548.47268 155.292088 548.47268 155.292088zM510.114047 536.703891c-28.688389 0-51.938929 23.258727-51.938929 51.938929 0 28.682249 23.25054 51.940976 51.938929 51.940976 28.682249 0 51.940976-23.258727 51.940976-51.940976C562.055023 559.962617 538.796296 536.703891 510.114047 536.703891L510.114047 536.703891zM510.114047 536.703891"  horiz-adv-x="1024" />

    
    <glyph glyph-name="quanxianguanli" unicode="&#59000;" d="M507.12381-76.7097c-9.391182 0-18.782363 2.167196-27.089947 6.501587-17.698765 9.391182-36.842328 20.949559-56.708289 33.952734-51.2903 33.952734-104.386596 76.93545-149.897707 121.724162-51.651499 50.567901-94.273016 103.664198-123.168959 153.148501-29.257143 50.206702-44.427513 97.885009-44.427513 137.978131L105.831393 789.807407l43.343915-13.364374c33.230335-10.11358 65.738272-15.17037 96.440212-15.17037 89.216226 0 176.987654 25.283951 247.782716 71.156261l18.421164 11.919577 18.421164-11.919577c70.433862-45.87231 158.56649-71.156261 247.782716-71.156261 30.70194 0 63.209877 5.05679 96.440212 15.17037l43.343915 13.364374 0-412.850794c0-38.648325-15.892769-85.604233-45.87231-135.088536-29.618342-49.123104-73.323457-101.858201-126.780952-153.148501-46.23351-44.066314-100.774603-87.771429-153.148501-123.168959-20.22716-13.364374-39.370723-25.283951-57.069489-35.036332C526.628571-74.181305 516.87619-76.7097 507.12381-76.7097zM173.375661 376.956614c0-27.812346 12.641975-64.654674 35.397531-104.025397 25.64515-44.427513 64.293474-92.467019 111.971781-138.700529 42.621517-41.537919 92.467019-81.99224 140.145326-113.777778 16.253968-10.835979 32.146737-20.22716 46.594709-28.173545 14.809171 8.307584 30.70194 18.059965 47.678307 29.618342 49.484303 32.869136 100.413404 74.045855 144.118519 115.583774 49.123104 47.317108 89.216226 95.356614 115.944974 139.422928 23.116755 38.648325 36.119929 74.407055 36.119929 100.413404L851.346737 701.31358c-24.561552-4.695591-48.761905-7.223986-72.601058-7.223986-95.356614 0-187.462434 24.561552-266.20388 70.795062-78.741446-46.23351-170.486067-70.795062-266.20388-70.795062-23.477954 0-48.039506 2.528395-72.601058 7.223986L173.736861 376.956614zM504.956614 330.000705c-81.631041 0-148.091711 66.46067-148.091711 148.091711s66.46067 148.091711 148.091711 148.091711 148.091711-66.46067 148.091711-148.091711S586.948854 330.000705 504.956614 330.000705zM504.956614 559.001058c-44.427513 0-80.908642-36.119929-80.908642-80.908642 0-44.427513 36.119929-80.908642 80.908642-80.908642 44.427513 0 80.908642 36.119929 80.908642 80.908642C585.865256 522.881129 549.745326 559.001058 504.956614 559.001058zM508.929806 141.815873c-18.421164 0-33.591534 15.17037-33.591534 33.591534L475.338272 346.977072c0 18.421164 15.17037 33.591534 33.591534 33.591534 18.421164 0 33.591534-15.17037 33.591534-33.591534l0-171.930864C542.52134 156.625044 527.35097 141.815873 508.929806 141.815873zM522.29418 238.256085c-18.421164 0-33.591534 15.17037-33.591534 33.591534s15.17037 33.591534 33.591534 33.591534l57.430688 0c18.421164 0 33.591534-15.17037 33.591534-33.591534s-15.17037-33.591534-33.591534-33.591534L522.29418 238.256085z"  horiz-adv-x="1024" />

    
    <glyph glyph-name="mima" unicode="&#58935;" d="M836.351742-127.994705 187.648258-127.994705c-45.781988 0-83.022877 37.244419-83.022877 83.026407L104.625381 391.083164c0 45.783753 37.240889 83.028172 83.022877 83.028172l648.70172 0c45.781988 0 83.026407-37.244419 83.026407-83.028172l0-436.051462C919.378149-90.752051 882.131965-127.994705 836.351742-127.994705zM187.648258 418.757457c-15.267723 0-27.676057-12.404804-27.676057-27.676057l0-436.051462c0-15.244777 12.406569-27.676057 27.676057-27.676057l648.70172 0c15.267723 0 27.676057 12.43128 27.676057 27.676057L864.026035 391.083164c0 15.269488-12.406569 27.676057-27.676057 27.676057L187.648258 418.759222zM787.267337 460.056206l-55.35035 0 0 145.782926c0 129.484411-76.428632 234.808754-170.403674 234.808754L462.46021 840.647885c-93.971511 0-170.431914-105.324343-170.431914-234.808754l0-145.782926-55.35035 0 0 145.782926c0 159.998676 101.298253 290.160868 225.782264 290.160868l99.053103 0c124.484011 0 225.754023-130.160427 225.754023-290.160868L787.267337 460.056206zM529.809402 9.084736c-24.970228 0-45.268357 20.268123-45.268357 45.217171l0 88.971111c-40.267957 16.62152-66.648465 55.35035-66.648465 99.323157 0 59.567065 48.459576 108.000165 107.9984 108.000165 59.542354 0 107.975455-48.431335 107.975455-108.000165 0-40.973979-22.809802-77.729478-58.864573-96.054275l0-92.241757C575.000097 29.352859 554.728444 9.084736 529.809402 9.084736zM525.889215 322.920283c-44.294047 0-80.325873-36.024766-80.325873-80.322343 0-35.216371 22.866283-65.891256 56.894772-76.377446l9.755457-3.027069 0-108.889753c0-9.67603 7.89509-17.541113 17.594065-17.541113 9.651319 0 17.514638 7.865084 17.514638 17.541113l0 110.428881 8.648768 3.487748c30.5125 12.380093 50.215806 41.567038 50.215806 74.379404C606.188613 286.893752 570.162082 322.920283 525.889215 322.920283z"  horiz-adv-x="1024" />

    
    <glyph glyph-name="flight-go" unicode="&#58891;" d="M844.405 458.673l-215.685-0.085-247.527 366.889-102.336-0.969 173.51-377.895-264.131-14.032-103.509 154.195-48.197-0.609 40.525-214.042-43.609-185.406 48.205 0.427 105.901 139.689 260.079-7.25-175.652-371.245 102.364 0.943 251.971 357.514 216.806-0.177c97.179 0.969 140.38 35.375 140.619 78.579 0.429 42.879-42.148 74.071-139.337 73.475z"  horiz-adv-x="1024" />

    
    <glyph glyph-name="jinggao" unicode="&#59053;" d="M1011.982 53.482 606.673 755.435c-49.575 85.822-130.595 85.822-180.157 0L21.205 53.482c-49.562-85.91-9.015-155.99 90.04-155.99l810.693 0C1020.997-102.507 1061.502-32.423 1011.982 53.482zM460.924 556.263c14.565 15.747 33.082 23.622 55.665 23.622 22.595 0 41.095-7.792 55.675-23.307 14.485-15.55 21.725-34.997 21.725-58.382 0-20.12-30.235-168.07-40.32-275.704l-72.825 0c-8.845 107.635-41.652 255.584-41.652 275.704C439.194 521.226 446.446 540.593 460.924 556.263zM571.244 44.462c-15.32-14.92-33.55-22.355-54.65-22.355-21.095 0-39.33 7.435-54.647 22.355-15.275 14.885-22.867 32.915-22.867 54.09 0 21.065 7.592 39.29 22.867 54.565 15.317 15.28 33.552 22.92 54.647 22.92 21.1 0 39.33-7.64 54.65-22.92 15.265-15.275 22.875-33.5 22.875-54.565C594.119 77.377 586.509 59.347 571.244 44.462z"  horiz-adv-x="1034" />

    
    <glyph glyph-name="mokuaixianxing" unicode="&#58987;" d="M362.543418 888.232503 114.457685 888.232503c-59.836825 0-108.812701-48.975877-108.812701-108.812701L5.644983 531.334068c0-59.836825 48.975877-108.812701 108.812701-108.812701l248.085733 0c59.836825 0 108.812701 48.975877 108.812701 108.812701L471.356119 779.419802C471.356119 839.279206 422.380243 888.232503 362.543418 888.232503zM423.599559 547.072282c0-42.247056-34.569879-76.816935-76.816935-76.816935L130.195899 470.255347c-42.247056 0-76.816935 34.569879-76.816935 76.816935L53.378964 763.681588c0 42.247056 34.569879 76.816935 76.816935 76.816935l216.609305 0c42.247056 0 76.816935-34.569879 76.816935-76.816935L423.622139 547.072282zM359.359647 352.884851 111.273914 352.884851c-59.836825 0-108.812701-48.975877-108.812701-108.812701l0-248.085733c0-59.836825 48.975877-108.812701 108.812701-108.812701l248.085733 0c59.836825 0 108.812701 48.975877 108.812701 108.812701L468.172348 244.07215C468.172348 303.908975 419.219052 352.884851 359.359647 352.884851zM420.438368 11.724631c0-42.247056-34.569879-76.816935-76.816935-76.816935L127.034708-65.092304c-42.247056 0-76.816935 34.569879-76.816935 76.816935l0 216.609305c0 42.247056 34.569879 76.816935 76.816935 76.816935l216.609305 0c42.247056 0 76.816935-34.569879 76.816935-76.816935L420.460948 11.724631zM893.081544 352.884851 644.99581 352.884851c-59.836825 0-108.812701-48.975877-108.812701-108.812701l0-248.085733c0-59.836825 48.975877-108.812701 108.812701-108.812701l248.085733 0c59.836825 0 108.812701 48.975877 108.812701 108.812701L1001.894245 244.07215C1001.894245 303.908975 952.918368 352.884851 893.081544 352.884851zM954.137685 11.724631c0-42.247056-34.569879-76.816935-76.816935-76.816935l-216.609305 0c-42.247056 0-76.816935 34.569879-76.816935 76.816935l0 216.609305c0 42.247056 34.569879 76.816935 76.816935 76.816935l216.609305 0c42.247056 0 76.816935-34.569879 76.816935-76.816935L954.137685 11.724631zM970.485557 719.966836l-144.782536 142.592282c-34.931158 34.389239-91.629372 33.960221-126.041191-0.948357l-142.592282-144.782536c-34.389239-34.931158-33.960221-91.629372 0.948357-126.041191l144.782536-142.592282c34.931158-34.389239 91.629372-33.960221 126.041191 0.948357l142.592282 144.782536C1005.823153 628.856803 1005.394135 685.577596 970.485557 719.966836zM810.032547 485.790342c-24.273429-24.657288-64.307652-24.950827-88.964939-0.677398l-126.40247 124.483175c-24.657288 24.273429-24.950827 64.307652-0.677398 88.964939l124.483175 126.40247c24.273429 24.657288 64.307652 24.950827 88.964939 0.677398l126.40247-124.483175c24.657288-24.273429 24.950827-64.307652 0.677398-88.964939L810.032547 485.790342z"  horiz-adv-x="1024" />

    
    <glyph glyph-name="open-copy" unicode="&#58913;" d="M861.169 51.945c0-30.888-25.061-55.839-55.892-55.839h-698.233l97.786 460.819c0 30.859 24.9 55.867 55.731 55.867h642.498c30.832 0 55.787-25.008 55.787-55.867l-97.678-404.981zM218.723 554.71h628.446v54.852c0 30.859-25.060 55.866-55.839 55.866h-335.143v50.628c0 30.807-25.008 55.839-55.839 55.839h-279.357c-30.832 0-55.839-25.032-55.839-55.839v-664.11l97.679 446.873c0 30.858 25.060 55.891 55.892 55.891v0zM218.723 554.71z"  horiz-adv-x="1024" />

    
    <glyph glyph-name="weixuanzhong" unicode="&#58933;" d="M879.094726-57.396989 153.916509-57.396989c-44.856627 0-81.219813 36.363186-81.219813 81.219813L72.696696 749.000018c0 44.856627 36.363186 81.219813 81.219813 81.219813l725.177194 0c44.856627 0 81.219813-36.363186 81.219813-81.219813L960.313515 23.822824C960.314539-21.033803 923.951353-57.396989 879.094726-57.396989z"  horiz-adv-x="1024" />

    
    </font>
</defs>
</svg>
